<svg width="810" height="629" viewBox="0 0 810 629" fill="none" xmlns="http://www.w3.org/2000/svg">
<g clip-path="url(#clip0_947_1369)">
<g opacity="0.25">
<path d="M310.715 361.498C309.822 359.849 308.673 358.435 308.162 356.786C307.907 355.844 308.673 354.548 309.311 353.606C310.588 352.075 311.864 350.308 313.651 349.366C316.46 347.834 318.247 345.596 320.162 343.358C321.694 341.591 323.736 340.06 325.523 338.411C327.183 336.998 328.587 335.349 330.247 333.935C332.289 332.286 334.587 330.637 336.885 329.459C338.289 328.752 339.566 328.635 339.693 326.514C339.693 325.219 341.863 323.334 343.395 322.863C349.267 321.096 352.459 316.502 356.799 313.204C357.693 312.497 358.842 312.144 359.735 311.673C360.501 311.202 361.523 310.966 362.033 310.377C364.969 306.608 369.437 304.723 374.16 303.074C374.543 302.956 375.054 302.956 375.565 302.838C376.969 302.249 379.011 301.072 379.777 302.838C380.416 304.134 379.777 306.254 379.139 307.668C378.118 310.141 375.948 312.144 374.543 314.617C373.139 317.444 369.82 319.565 367.395 321.803C367.012 322.156 366.246 322.274 365.99 322.627C364.586 326.868 359.735 328.046 356.544 330.637C355.267 331.697 354.374 333.111 353.097 334.171C348.757 337.587 344.544 341.12 339.949 344.301C336.885 346.539 333.183 348.188 330.119 350.308C326.8 352.664 323.992 355.491 320.8 357.846C319.268 359.024 317.098 359.613 315.183 360.32C313.907 360.909 312.375 361.027 310.715 361.498Z" fill="#16365E"/>
<path d="M322.587 410.028C321.694 409.321 321.055 408.85 320.673 408.732C321.566 407.437 322.587 406.259 322.843 404.963C323.226 402.96 324.119 401.9 325.906 402.018C326.672 400.251 326.928 398.367 327.949 397.071C329.608 395.069 331.651 393.537 333.566 391.77C336.119 389.532 337.013 389.886 338.927 392.477C340.587 394.715 340.715 396.718 339.183 398.956C339.055 399.191 338.927 399.662 339.055 399.898C339.949 403.078 339.055 405.316 336.119 407.083C335.481 407.437 335.098 408.968 335.481 409.321C336.757 410.735 336.119 411.559 334.842 412.384C334.459 412.619 334.332 413.208 334.204 413.679C333.31 416.506 332.034 418.862 329.353 420.865C327.311 422.278 326.417 424.634 326.034 426.99C325.779 428.521 325.396 430.759 324.119 431.466C321.566 432.997 320.034 435.353 317.992 437.12C317.098 437.944 316.077 438.887 315.694 440.064C315.183 441.713 314.545 441.949 312.885 441.007C312.63 442.774 312.375 444.187 311.992 445.954C311.226 445.954 310.46 445.836 309.056 445.718C309.949 446.778 310.46 447.367 310.843 447.721C309.949 449.37 309.056 450.901 308.162 452.55C307.141 454.435 305.992 456.319 303.95 455.259C302.545 457.026 301.269 458.44 299.992 459.971C299.737 459.853 299.482 459.735 299.226 459.5C299.482 458.322 299.865 457.262 300.248 455.966C298.716 456.084 297.439 456.202 295.652 456.319C298.716 457.497 297.822 459.029 296.418 461.267C296.163 459.146 295.907 457.497 293.354 457.615C292.843 457.615 291.822 456.084 291.822 455.259C291.822 453.964 292.46 452.55 292.971 451.255C293.992 448.545 295.141 445.718 296.418 443.009C296.801 442.067 297.822 441.478 298.205 440.653C299.482 437.826 300.503 434.882 301.907 432.055C302.29 431.112 303.311 430.406 304.077 429.581C304.843 428.874 305.737 428.285 306.503 427.579C308.035 426.401 309.566 424.987 311.354 424.045C312.885 423.103 313.396 422.514 311.864 421.218C311.481 420.865 311.354 420.04 311.098 419.569C311.737 419.451 312.247 419.333 312.885 419.216C315.183 419.216 316.588 418.627 316.97 416.271C317.353 413.562 318.502 410.97 322.587 410.381V410.028ZM307.013 440.536C307.396 440.182 307.652 439.829 308.035 439.358C307.141 438.769 306.247 438.18 305.226 437.591C305.226 437.591 304.588 438.18 304.588 438.298C305.354 439.004 306.12 439.711 307.013 440.536Z" fill="#16365E"/>
<path d="M654.111 287.644C657.94 288.115 661.132 288.233 664.323 288.822C666.366 289.175 668.28 289.882 670.068 290.471C671.855 291.06 673.387 291.766 675.174 292.473C676.323 292.826 677.472 293.062 678.621 293.415C679.642 293.769 680.663 294.004 681.429 294.593C683.216 295.889 683.472 297.302 680.918 298.363C680.28 298.598 679.77 299.423 679.387 299.894C680.28 300.954 681.174 301.896 682.067 302.956L681.429 303.428C679.897 303.192 678.493 302.956 676.833 302.603C675.812 304.841 674.408 305.194 672.238 303.663C671.727 303.31 670.706 303.545 669.94 303.663C668.791 303.663 667.387 304.252 666.493 303.781C662.153 301.778 657.302 301.896 652.706 301.19C651.047 300.954 649.515 300.365 647.855 300.129C642.239 299.187 636.366 300.483 630.75 299.187C628.324 298.598 626.154 298.245 625.643 296.242C622.58 296.242 619.771 296.713 617.218 296.125C614.665 295.653 612.239 294.122 609.814 293.062C609.176 292.826 608.665 292.355 608.027 292.355C605.091 291.766 603.431 290.471 603.686 287.761C603.814 286.466 605.601 284.699 607.005 284.346C614.154 282.579 621.431 282.225 628.707 284.581C630.877 285.288 633.43 284.817 635.856 285.052C636.877 285.17 638.026 285.523 638.919 286.112C640.451 286.937 641.856 287.997 643.515 286.466C643.898 286.112 645.175 285.877 645.558 286.112C647.09 287.29 647.983 286.701 649.643 286.112C650.919 285.641 652.962 287.172 654.111 287.644Z" fill="#16365E"/>
<path d="M606.367 43.8177C606.239 42.9931 606.367 42.0508 605.984 41.3441C604.963 39.8128 604.835 38.8705 607.133 38.3993C607.771 38.2815 608.282 37.5748 608.665 37.1036C611.09 34.3944 613.261 31.4497 615.814 28.8583C617.218 27.5626 619.643 27.0914 621.303 25.9135C622.962 24.7356 624.111 23.2044 625.516 21.9087C625.643 21.6731 625.643 21.4375 625.899 21.2019C627.686 19.3173 629.218 17.1971 631.26 15.6658C632.792 14.4879 635.473 13.31 637.005 13.6634C639.047 14.2523 640.707 16.3725 642.494 17.786C642.111 17.9038 641.728 18.0216 641.473 18.1394C641.217 19.0817 640.707 19.9062 640.579 20.8486C640.324 24.3823 637.643 26.5025 635.09 28.8583C634.452 27.6804 633.941 26.9737 633.43 26.1491C633.047 26.1491 632.792 26.1491 632.409 26.1491C634.707 28.8583 633.047 31.0963 631.771 33.0987C630.494 35.1012 628.835 37.1036 627.303 39.2238C624.239 37.5748 623.473 39.2238 623.218 41.2263C622.835 43.9354 620.665 45.3489 618.622 47.1158C616.452 49.1182 613.261 50.2961 612.367 53.5942C611.729 56.0678 609.941 58.3059 606.239 58.0703C605.856 58.0703 604.963 58.6592 604.963 58.8948C604.963 62.0751 601.389 62.0751 599.729 63.842C596.282 67.3757 591.304 68.0825 586.325 68.5536C585.687 68.5536 584.921 68.2002 584.41 67.7291C582.878 66.3156 583.261 62.5463 584.793 61.015C586.708 59.0126 588.495 56.7746 590.282 54.6544C593.219 51.3562 595.644 47.7047 599.601 45.2311C600.112 44.9956 600.495 44.6422 600.878 44.2888C602.41 42.7575 604.197 42.522 606.367 43.8177Z" fill="#16365E"/>
<path d="M141.188 68.4354C141.698 69.1421 142.209 69.7311 142.592 70.2022C142.847 70.0844 143.103 70.0845 143.358 69.9667C143.103 69.2599 142.72 68.4354 142.592 67.7286C142.592 66.5507 142.847 65.2551 142.975 64.0771C143.996 64.3127 145.145 64.3127 145.911 64.7839C147.315 65.6084 148.592 66.7863 149.996 67.4931C150.634 67.8464 151.783 67.7286 152.166 67.8464C153.315 68.671 153.953 69.3777 154.847 69.7311C157.911 70.909 161.358 71.4979 164.166 73.0292C166.974 74.5605 169.272 77.0341 171.57 79.2721C172.974 80.5678 174.123 82.3346 175.655 83.6303C176.421 84.3371 177.953 85.1616 178.719 84.926C180.889 84.4549 181.783 85.515 182.931 86.6929C183.697 87.3996 184.336 88.3419 185.357 88.6953C189.57 90.2266 191.995 93.1713 194.676 96.2339C195.314 96.9406 196.718 97.294 197.229 98.0007C197.867 98.9431 198.123 100.239 198.633 101.888C203.995 101.888 205.144 106.717 207.824 110.015C208.973 111.311 206.803 114.138 204.505 114.374C203.356 114.491 201.825 114.727 200.931 114.374C195.442 111.9 190.208 109.073 186.633 104.479C186.378 104.008 186.378 103.301 186.378 102.712C185.74 102.712 185.229 102.712 184.591 102.712C184.463 102.712 184.336 102.477 184.208 102.477C184.08 101.299 183.953 100.239 183.825 98.8253C182.676 99.8854 182.165 100.71 181.272 101.181C180.634 101.534 179.357 101.652 178.846 101.299C177.953 100.71 176.932 99.6498 176.804 98.8253C176.804 96.2339 175.4 94.467 172.208 94.3492C167.996 94.1137 164.421 93.2891 162.762 89.2843L162.251 89.8732C161.23 89.1665 160.081 88.5775 159.06 87.8708C156.89 86.4573 154.719 85.0438 152.805 83.3948C149.613 80.6856 146.549 77.7408 143.486 75.0316C142.847 74.4427 141.954 74.0893 141.188 73.7359C138.762 72.6758 138.762 70.0844 141.188 68.4354Z" fill="#16365E"/>
<path d="M254.164 26.5025C252.759 25.3246 250.845 24.5001 250.079 23.0866C249.313 21.5553 249.696 19.6707 249.568 18.375C248.164 18.6105 246.377 19.3173 244.717 19.1995C243.823 19.0817 243.313 17.4326 242.292 16.0192C239.611 15.6658 231.696 7.89164 231.185 3.88677C232.334 4.82909 233.228 5.41804 233.994 6.00699C234.249 5.8892 234.505 5.77141 234.76 5.77141C234.377 4.94688 233.994 4.00456 233.483 3.29782C231.951 1.64875 232.079 1.0598 234.377 0.235269C237.313 -0.707053 240.249 0.117478 243.058 0.70643C243.696 0.82422 244.334 0.82422 244.845 1.0598C245.866 1.53096 246.887 2.00212 247.781 2.70886C249.185 3.76898 250.334 5.41804 251.993 5.8892C254.419 6.59594 256.206 7.42047 257.866 9.30512C259.78 11.5431 261.951 13.7811 264.504 15.548C266.291 16.8437 266.802 18.0216 265.014 19.3173C265.653 21.0841 270.504 19.6707 268.206 23.0866C272.801 24.1467 274.589 27.0914 275.865 30.6252C276.759 32.981 278.163 35.1012 279.312 37.3392C280.588 39.8128 281.865 42.2864 282.759 44.8778C283.397 46.6446 278.546 51.8274 276.503 52.063C276.12 52.063 275.738 52.063 275.482 51.8274C273.312 50.5317 271.27 49.1182 269.099 47.8225C268.972 47.7047 268.716 47.7047 268.589 47.587C267.312 45.5845 266.291 43.4643 264.887 41.5797C264.121 40.5195 262.844 39.8128 261.951 38.7527C261.057 37.8104 260.546 36.5147 259.908 35.4546C258.887 33.6877 258.759 31.5675 256.206 30.3896C255.057 29.8006 254.674 27.916 253.908 26.5025C254.036 26.5025 254.164 26.5025 254.291 26.3847L254.164 26.5025Z" fill="#16365E"/>
<path d="M530.667 504.731C530.667 504.731 530.029 504.967 529.008 505.438C527.348 501.315 525.816 497.31 524.157 493.188C522.752 493.659 522.114 493.07 521.603 491.539C520.965 489.889 519.306 488.476 518.412 486.827C516.753 484 515.348 481.173 513.816 478.346C512.412 475.755 511.008 473.163 509.604 470.69C508.327 468.452 509.987 463.976 512.668 463.033C513.051 462.916 513.689 462.68 513.944 462.798C517.391 464.565 521.603 464.918 523.646 468.923C525.944 473.281 529.263 477.286 532.071 481.409C532.199 481.644 532.454 481.88 532.454 482.115C532.327 487.298 537.178 490.361 538.837 494.719C539.092 495.426 538.326 496.486 538.199 497.428C538.199 498.135 538.582 499.431 538.582 499.431C542.794 498.842 543.05 502.493 544.582 504.378C547.262 507.794 549.305 511.681 551.603 515.45C552.624 517.335 553.518 519.219 554.156 521.222C554.539 522.282 554.794 523.577 552.879 524.049C552.369 524.166 551.858 525.109 551.858 525.58C552.113 527.7 550.326 528.171 548.667 528.407C547.007 528.642 545.986 528.054 545.092 526.522C543.688 524.284 541.646 522.282 539.475 520.515C536.412 517.924 534.752 514.743 533.348 511.21C533.093 510.738 532.965 510.149 532.71 509.678C532.199 508.029 531.433 506.498 530.667 504.731Z" fill="#16365E"/>
<path d="M563.602 222.624C562.709 222.506 562.198 222.388 561.56 222.27C561.56 221.917 561.432 221.564 561.56 221.446C562.836 217.912 566.411 215.674 570.496 215.321C572.283 215.085 574.07 214.025 575.857 213.318C577.517 212.729 579.304 212.258 580.964 211.669C581.73 211.434 582.368 210.962 583.134 210.727C584.283 210.373 585.687 209.431 586.453 209.785C588.495 210.845 590.027 209.902 591.814 209.549C595.644 208.842 599.346 208.253 603.048 207.429C606.623 206.604 610.325 205.662 614.027 204.72C613.771 205.78 613.644 206.486 613.516 207.193C614.154 206.722 614.92 206.369 615.558 206.015C616.707 205.426 617.856 204.366 619.005 204.248C623.473 204.131 627.941 204.248 632.409 204.484C634.196 204.484 636.366 206.958 636.494 208.724C636.494 209.549 636.877 210.256 636.877 210.491C635.217 212.14 633.941 214.378 632.537 214.496C629.601 214.849 628.196 218.03 624.877 217.205C624.111 216.97 622.962 217.559 622.069 217.912C620.409 218.501 618.75 219.326 617.346 217.676C616.197 218.383 615.048 218.972 613.899 219.443C613.261 219.797 612.495 219.914 611.729 220.15C611.729 219.443 611.601 218.737 611.601 217.912C611.218 218.383 610.835 218.619 610.58 218.972C609.176 220.975 607.261 221.564 604.452 221.328C601.006 221.092 597.559 221.092 594.112 221.564C592.325 221.799 590.921 223.213 589.134 223.802C587.729 224.273 585.942 224.862 584.538 224.508C581.602 224.037 579.304 225.215 576.879 226.275C576.24 226.511 574.836 226.746 574.581 226.393C573.177 224.979 571.772 225.451 570.368 226.275C568.964 227.1 567.815 227.217 566.538 226.04C566.283 225.804 565.9 225.451 565.645 225.451C563.092 225.568 562.836 224.39 563.602 222.624Z" fill="#16365E"/>
<path d="M374.288 516.039C371.735 507.086 366.629 498.488 371.352 488.24C369.82 488.358 368.927 488.358 367.65 488.476C366.118 478.11 365.097 467.745 364.714 457.026C365.352 457.732 365.99 458.439 367.012 459.499C367.778 458.204 368.416 457.261 368.927 456.319C367.65 455.141 366.501 454.081 365.225 452.785C367.267 452.196 368.799 451.136 369.82 451.489C371.735 452.078 373.778 453.139 374.799 454.552C376.203 456.437 376.586 458.91 377.735 461.03C378.756 462.797 378.245 463.857 376.458 464.682C381.565 467.391 384.118 482.939 380.288 489.065C383.224 489.182 383.224 490.831 383.224 492.834C383.352 495.425 384.373 498.017 384.373 500.608C384.373 503.317 383.352 505.909 383.224 508.5C383.224 509.796 384.501 511.209 384.501 512.505C384.628 513.918 383.99 515.45 383.607 516.863C383.479 517.334 382.841 517.688 382.841 518.159C383.096 521.339 380.288 520.986 378.628 520.515C376.969 520.043 375.692 518.512 374.288 517.334C374.16 517.216 374.671 516.392 374.926 515.803C374.671 515.921 374.416 516.039 374.288 516.039Z" fill="#16365E"/>
<path d="M169.655 175.508C171.825 174.919 173.485 175.036 174.889 176.803C175.655 177.628 177.315 178.099 178.591 178.099C181.272 178.217 183.059 179.159 184.719 181.044C185.868 182.575 188.165 183.282 189.442 184.695C191.229 186.933 192.761 189.407 194.038 191.88C194.165 192.116 191.995 193.883 190.974 193.883C188.038 193.765 185.229 193.176 182.293 192.705C177.187 191.763 173.23 189.525 170.804 185.284C170.166 184.224 169.272 183.046 168.379 181.868C167.74 182.104 166.591 183.046 165.57 183.046C164.421 183.046 163.272 182.339 162.123 181.868C158.804 180.101 154.847 179.277 152.294 176.332C151.4 175.272 149.996 173.859 148.72 173.859C146.039 173.623 145.018 171.856 143.358 170.56C141.571 169.029 140.294 166.673 137.103 167.145C136.848 167.145 136.465 166.791 136.209 166.556C133.911 164.553 131.741 162.551 129.571 160.666C127.912 159.253 126.38 153.245 127.401 151.478C127.912 150.536 128.55 149.594 129.188 148.651C130.592 146.767 131.486 146.885 132.89 148.887C133.273 149.358 134.677 149.829 135.316 149.594C136.975 149.123 137.869 149.358 138.635 150.772C139.145 151.714 140.294 152.539 141.188 153.127C145.017 155.601 147.06 159.842 151.911 161.255C152.549 161.491 153.188 162.315 153.188 162.904C153.315 165.26 154.975 165.967 157.272 166.556C162.762 168.087 167.357 170.443 169.655 175.508Z" fill="#16365E"/>
<path d="M268.206 323.687C268.078 321.567 267.823 319.8 271.014 320.153C271.27 320.153 271.78 318.975 272.291 318.386C273.057 317.68 273.95 316.737 274.972 316.384C277.014 315.677 279.184 315.324 281.227 314.617C284.801 313.321 288.375 312.026 291.822 310.612C294.503 309.434 297.056 308.021 300.247 308.61C301.141 308.728 302.035 308.61 302.673 308.845C303.567 309.081 304.715 309.552 305.098 310.141C305.481 310.848 305.354 312.143 304.715 312.615C300.247 316.031 296.801 320.389 291.056 322.273C290.801 322.391 290.418 322.391 290.29 322.509C287.099 326.278 282.12 327.692 277.78 329.223C274.333 330.401 272.418 332.992 269.099 334.17C263.355 336.173 257.993 339 252.504 341.473C248.802 343.122 245.1 344.889 241.526 346.656C241.27 346.774 241.398 347.363 241.143 347.481C240.249 347.952 239.355 348.541 238.59 348.423C237.951 348.423 237.185 347.363 237.185 346.656C237.185 345.007 236.547 344.418 234.632 344.065C233.739 343.829 232.462 342.651 232.334 341.709C232.207 341.002 233.483 340.06 234.249 339.235C234.505 339 235.143 338.882 235.398 338.528C238.079 334.406 242.93 333.11 247.142 330.872C247.908 330.519 248.674 330.165 249.185 329.576C250.972 327.338 253.781 326.867 256.461 326.043C257.227 325.807 258.121 325.572 258.759 325.1C260.929 323.569 262.844 322.509 265.142 324.983C265.397 325.336 267.44 324.276 268.461 324.04L268.206 323.687Z" fill="#16365E"/>
<path d="M253.27 76.6808C252.376 77.6231 251.866 78.3299 251.1 79.1544C251.993 79.1544 252.376 79.1544 252.759 79.1544C255.951 78.9188 257.1 79.5078 257.355 82.4525C257.483 83.7482 257.866 84.2194 259.27 84.2194C261.057 84.2194 261.951 84.8083 262.206 86.4574C262.461 87.6353 263.61 88.5776 264.504 89.9911C263.61 89.8733 262.972 89.7555 262.206 89.7555L261.951 90.3445C262.844 90.6978 263.865 91.4046 264.759 91.5224C267.44 91.6402 268.972 92.4647 268.844 95.1739C268.844 95.8806 269.61 97.0585 270.248 97.2941C273.184 98.2364 273.567 100.357 274.333 102.241C275.737 103.655 277.397 104.95 278.418 106.6C279.823 108.838 281.099 111.429 282.12 113.903C283.142 116.141 284.163 118.379 284.418 120.617C284.673 121.912 283.525 123.561 282.886 125.564C281.482 124.268 280.461 123.208 279.44 122.148C276.503 123.444 275.993 123.326 273.95 120.734C272.546 119.085 270.759 117.79 269.355 116.141C267.95 114.374 266.802 112.489 265.525 110.722C265.142 110.133 265.142 109.191 264.631 108.955C260.802 107.306 259.142 104.126 257.1 101.181C256.972 101.063 256.972 100.828 256.844 100.71C251.228 98.1186 250.206 92.1113 245.738 88.6954C242.802 86.4574 242.547 82.4525 238.59 80.6857C237.185 80.0967 236.93 77.6231 236.036 76.2096C235.526 75.3851 234.76 74.4428 233.739 74.2072C230.803 73.3827 230.675 71.498 231.058 69.4956C231.441 67.3754 232.845 66.1975 235.653 66.433C237.696 66.6686 239.866 66.1975 240.377 68.7889C240.377 69.1422 241.27 69.3778 241.781 69.4956C244.972 70.7913 247.781 72.4403 249.823 75.0317C250.462 75.7385 251.866 76.0918 253.27 76.6808ZM248.93 82.2169C248.674 82.0992 248.291 81.9814 248.036 81.7458C247.908 84.1016 246.249 83.7482 244.589 83.2771C244.462 83.5126 244.334 83.7482 244.334 83.866L247.27 86.9286C247.525 86.9286 247.908 86.8108 248.164 86.8108C248.291 85.2795 248.547 83.866 248.93 82.2169Z" fill="#16365E"/>
<path d="M548.794 37.8107C548.539 40.1665 549.433 43.5825 547.901 45.7027C546.113 48.0585 545.475 50.0609 545.603 52.7701C545.603 53.4768 543.816 54.537 542.667 54.7725C539.731 55.4793 539.092 56.0682 540.88 58.1885C542.794 60.4265 539.986 61.4866 539.475 63.0179C538.582 65.3737 537.688 67.6117 536.539 69.8497C535.263 72.0877 533.731 74.3257 532.327 76.5637C531.433 77.8594 530.922 79.2729 530.156 80.6864C530.029 80.922 530.156 81.2754 530.029 81.3931C526.582 84.2201 527.093 88.6961 524.412 91.8765C523.901 92.4654 523.391 93.0544 522.752 93.5255C520.71 95.2924 518.157 96.7059 517.135 99.2973C516.88 99.8862 515.476 100.004 514.965 100.24C514.327 101.3 513.816 102.478 512.923 103.42C510.88 105.187 509.221 103.538 508.072 102.36C507.434 101.771 507.434 100.24 507.817 99.2973C509.221 95.9991 510.753 92.8188 512.285 89.6385C512.54 89.0495 513.433 88.6961 514.072 88.1072C514.71 87.4005 515.348 86.6937 515.987 85.987C515.731 85.7514 515.604 85.6336 515.348 85.398C514.455 85.6336 513.689 85.8692 512.795 86.1048C513.05 84.2201 514.072 83.16 516.242 82.571C518.54 81.9821 518.54 81.6287 517.008 79.6263C516.753 79.1551 517.008 78.2128 517.263 77.6239C517.774 76.446 518.667 75.3858 519.05 74.2079C519.689 72.7945 519.689 71.2632 520.455 69.9675C521.348 68.4362 522.625 67.0227 524.029 65.727C525.305 64.5491 526.965 63.8424 526.327 61.7222C526.071 60.7798 527.22 59.4842 527.731 58.3062C529.39 54.8903 530.922 51.4744 532.71 47.9407C533.348 46.7628 533.22 44.7604 535.773 46.0561C536.029 46.1739 536.922 45.8205 537.177 45.5849C537.433 45.1137 537.433 44.407 537.177 44.0536C536.029 41.1089 536.667 37.9285 539.475 36.3973C540.752 35.6905 542.922 36.0439 544.709 36.1617C545.986 36.3973 547.135 37.104 548.794 37.8107ZM540.88 51.8278C541.263 51.8278 541.645 51.8278 542.028 51.8278L541.263 48.5297C540.88 48.5297 540.497 48.6475 540.114 48.7652C540.369 49.7076 540.624 50.7677 540.88 51.8278Z" fill="#16365E"/>
<path d="M424.202 293.415C421.138 293.415 419.606 289.882 420.755 287.997C422.67 284.817 424.84 281.99 427.01 278.927C428.159 277.278 429.308 275.511 430.457 273.862C430.967 273.273 431.478 272.684 432.116 272.213C433.904 270.8 435.946 269.622 437.606 268.091C438.244 267.502 438.244 266.206 438.882 265.499C440.159 264.203 441.818 263.026 443.222 261.73C444.627 260.434 445.776 259.021 447.052 257.607C448.329 256.311 448.839 254.662 451.137 253.838C453.18 253.013 454.201 250.658 455.86 249.126C457.392 247.713 459.307 246.653 461.094 245.357C463.137 243.944 464.924 242.412 466.967 240.999C469.009 239.585 470.796 240.645 472.2 241.823C473.605 243.001 475.647 244.179 473.732 246.299C473.605 246.535 473.349 246.888 473.477 247.006C475.392 248.537 474.115 249.48 472.839 250.54C471.69 251.482 470.413 252.424 469.392 253.485C468.371 254.545 467.477 255.84 466.584 257.018C465.945 257.725 465.69 258.785 464.924 259.256C461.094 261.73 458.797 265.499 455.35 268.444C452.158 271.153 448.712 273.627 445.648 276.454C443.478 278.456 441.691 280.694 439.903 282.814C435.946 287.526 430.712 290.706 424.84 293.298C424.585 293.415 424.074 293.415 423.946 293.533L424.202 293.415ZM441.946 268.679C442.329 268.915 442.84 269.151 443.222 269.386C444.116 268.326 444.882 267.266 445.648 266.206C445.01 265.97 443.861 265.381 443.861 265.381C443.222 266.441 442.584 267.502 441.946 268.679Z" fill="#16365E"/>
<path d="M531.944 590.482C530.667 591.542 530.029 592.485 529.135 592.838C526.199 593.78 523.901 593.074 522.88 591.071C522.242 589.776 522.242 588.362 521.859 586.949C521.603 586.242 521.348 585.417 520.837 584.946C519.944 583.886 517.901 583.062 517.901 582.001C517.774 580.235 516.369 579.41 515.476 578.232C514.072 576.112 512.54 573.992 511.136 571.989C510.625 571.283 510.37 570.34 509.987 569.28C510.753 568.573 511.519 567.749 512.923 566.335C509.348 567.278 507.944 566.335 507.051 563.626C506.029 560.21 504.114 557.03 502.838 553.732C502.2 552.318 501.944 551.023 500.157 550.08C497.859 548.902 497.221 541.599 499.008 539.95C499.264 539.715 499.902 539.361 500.157 539.361C503.349 539.832 506.668 539.833 509.604 540.893C511.136 541.364 512.157 543.248 513.306 544.662C514.327 546.075 514.965 547.607 515.859 549.138C516.114 549.609 516.752 550.316 516.625 550.669C515.476 553.378 518.157 554.203 519.561 555.734C520.454 556.794 521.22 557.972 521.859 559.15C522.242 559.857 522.497 560.681 522.625 561.388C522.88 562.919 523.008 564.333 523.135 565.864C524.412 565.629 527.22 567.16 527.731 569.162C528.369 571.4 528.624 573.756 529.518 575.876C530.029 577.172 531.433 578.232 532.454 579.41C533.092 580.235 533.731 580.941 534.497 582.001C533.475 582.355 532.709 582.59 531.561 582.944C532.837 583.533 533.858 584.004 534.497 584.357C534.241 585.417 533.858 586.36 534.114 587.066C535.135 590.953 535.007 591.071 531.944 590.482Z" fill="#16365E"/>
<path d="M103.146 212.022C101.87 211.904 100.593 211.904 99.3166 211.787C95.6145 211.316 92.0401 210.727 88.3381 210.138C85.9127 209.666 83.3595 209.195 80.9341 208.842C80.6787 208.842 80.2958 209.195 80.0405 209.313C77.998 209.902 76.4661 209.902 74.6789 208.371C73.6577 207.428 71.4875 206.84 69.9556 207.075C66.5089 207.546 63.3175 206.957 59.8708 206.133C56.9347 205.426 54.1263 203.188 50.5519 204.837C50.0413 205.073 48.637 203.541 47.4881 202.599C46.8498 202.835 45.8286 203.188 44.935 203.306C44.2967 203.306 43.6584 202.952 43.0202 202.599C42.8925 202.599 43.1478 201.657 43.4031 201.539C44.0414 201.303 44.8073 201.303 45.5733 201.303C45.8286 201.303 46.2116 201.421 46.8498 201.657C46.8498 200.479 46.4669 199.419 46.7222 198.476C46.9775 197.77 48.1264 197.063 48.7647 197.063C49.9136 197.063 51.3178 197.534 52.2114 198.123C54.1263 199.419 54.5092 198.359 54.7645 197.298C56.1688 197.181 57.573 197.063 58.8495 197.063C62.0409 196.945 65.2323 196.945 68.4237 196.945C69.062 196.945 69.828 197.416 70.3386 197.181C72.6364 196.238 74.2959 196.71 75.7002 198.476C75.9555 198.83 77.1044 199.065 77.615 198.83C82.5936 196.945 87.1892 198.359 91.5295 200.125C92.6784 200.597 93.3167 200.95 94.7209 200.714C96.8911 200.479 99.3166 200.95 101.487 201.421C103.912 202.01 106.082 203.306 108.763 202.363C109.146 202.246 110.04 202.599 110.167 202.835C111.061 204.719 112.976 204.13 114.508 204.601C117.954 205.544 121.784 206.486 124.21 208.606C125.614 209.784 127.146 211.787 128.295 213.554C129.188 215.085 126.252 217.205 123.827 216.852C122.039 216.616 120.38 215.909 118.593 215.32C118.082 215.203 117.571 214.849 117.061 214.731C113.486 214.143 109.912 213.671 106.338 212.965C105.189 212.729 104.295 211.904 103.274 211.433C103.274 211.787 103.146 211.904 103.146 212.022Z" fill="#16365E"/>
<path d="M315.822 247.006C319.651 246.534 323.353 247.948 326.8 250.422C329.864 252.66 333.438 254.544 335.864 257.136C338.544 260.08 343.268 259.727 345.693 262.672C347.225 264.556 349.14 266.205 350.927 267.972C352.204 269.268 353.48 270.681 354.629 272.095C355.778 273.626 356.416 275.629 354.374 276.453C353.225 276.924 350.672 276.1 349.523 275.157C347.48 273.391 345.948 271.153 344.289 269.15C339.055 269.975 343.012 272.213 343.395 274.097C342.629 274.215 341.991 274.451 341.736 274.333C336.885 270.799 330.374 269.975 325.906 265.616C324.119 263.85 320.928 263.261 318.375 262.083C317.736 261.729 317.226 261.14 316.715 260.551C315.822 259.138 315.056 258.078 312.63 258.667C309.694 259.256 308.417 256.664 306.503 255.251C305.481 254.544 304.332 253.955 303.311 253.248C302.418 252.777 301.524 252.306 300.758 251.835C300.503 251.599 300.247 251.128 299.992 251.128C295.652 250.657 294.375 247.123 292.205 244.65C291.312 243.472 291.056 241.941 290.546 240.527C292.077 240.174 293.737 239.231 295.141 239.467C297.567 239.938 299.865 240.998 302.29 241.941C302.673 242.058 303.056 242.412 303.439 242.53C306.375 243.119 309.311 243.472 312.12 244.179C313.396 244.532 314.29 245.71 315.822 247.006Z" fill="#16365E"/>
<path d="M114.635 271.271C113.103 270.211 111.699 269.269 110.933 268.797C112.465 267.148 114.125 265.382 115.784 263.615L115.274 263.026C116.805 263.261 118.337 263.379 120.508 263.732C119.359 263.026 118.465 262.437 117.571 261.966C119.869 259.492 122.039 259.492 125.103 261.023C126.252 261.612 128.167 261.259 129.699 261.259C131.741 261.141 133.784 260.67 135.826 260.67C137.741 260.67 139.656 261.141 141.571 261.377C144.635 261.848 147.571 262.319 150.634 262.672C153.188 263.026 155.741 263.144 158.294 263.497C163.911 264.204 169.528 265.264 175.144 265.735C178.208 265.971 178.974 268.326 180.889 269.74C181.017 269.858 180.506 271.035 179.995 271.507C176.038 274.334 171.442 275.629 166.464 276.336C161.485 277.043 156.634 277.043 151.783 276.454C150.379 276.218 149.103 275.276 148.337 274.923C144.762 275.04 141.698 275.158 138.762 275.158C135.316 275.04 131.869 274.805 128.55 274.216C125.103 273.509 121.656 272.331 118.082 271.624C117.061 270.918 115.657 271.271 114.635 271.271ZM140.805 262.79C140.805 262.79 140.294 263.026 140.039 263.261C140.294 263.85 140.294 264.91 140.677 265.028C142.337 265.499 143.996 265.617 146.039 265.971C145.656 262.555 141.315 265.382 140.805 262.79Z" fill="#16365E"/>
<path d="M459.307 474.341C461.605 473.752 464.413 476.344 463.264 478.111C462.499 479.288 461.477 480.349 460.711 481.291C458.796 481.055 456.882 480.938 454.967 480.349C454.201 480.113 453.69 479.053 453.307 478.228C452.414 475.637 451.648 472.928 450.754 470.336C449.605 466.921 448.201 463.505 446.924 459.971C446.797 459.5 446.286 458.793 446.541 458.557C448.201 456.084 445.648 454.67 445.137 452.786C444.244 449.959 443.733 447.014 443.605 444.069C443.605 442.891 444.754 441.596 445.648 440.653C446.924 439.475 446.286 438.886 445.137 438.415C441.946 437.237 440.669 434.882 441.308 431.819C441.435 431.348 440.925 430.877 440.797 430.288C440.159 427.696 438.627 425.105 441.563 422.867C439.137 420.158 441.818 417.095 447.563 416.035C447.435 416.742 447.307 417.331 447.307 417.684C448.329 418.273 450.116 418.744 450.116 419.215C450.116 420.158 449.095 420.982 448.329 422.042C452.158 422.985 452.924 425.576 453.307 428.874C453.818 432.055 455.35 435.117 456.243 438.298C456.499 439.122 457.775 440.3 455.477 440.536C455.477 441.007 455.35 441.713 455.733 441.949C456.882 442.774 458.158 443.48 459.052 443.951C458.924 447.367 457.903 450.43 460.073 453.139C461.733 455.259 461.733 457.497 461.35 459.853C460.967 462.327 460.584 464.565 462.243 466.921C462.882 467.863 462.881 469.159 463.137 470.336C463.392 471.514 463.009 472.221 461.477 472.339C460.584 472.457 459.818 473.163 459.052 473.517C459.052 473.87 459.179 474.106 459.307 474.341ZM446.924 428.639C448.967 427.696 450.244 427.225 451.392 426.754L451.648 425.93C450.499 425.576 449.35 425.223 448.201 424.869C447.818 425.93 447.435 426.99 446.924 428.639Z" fill="#16365E"/>
<path d="M591.687 120.853C592.453 119.204 591.559 116.495 595.516 117.437C593.857 115.67 595.261 114.846 596.41 113.668C599.346 110.841 601.899 107.778 604.708 104.833C604.835 104.716 604.963 104.598 605.091 104.48C608.537 103.538 609.559 100.24 612.239 98.7083C613.388 98.0016 614.537 97.5304 615.814 97.177C619.005 93.29 623.09 90.1096 628.324 88.5784C630.111 88.1072 632.409 89.1673 634.452 89.7563C634.835 89.874 635.345 90.8164 635.218 90.9342C633.813 92.8188 635.218 95.528 632.664 97.177C630.622 98.4727 629.218 100.475 627.43 102.006C626.665 102.713 625.516 102.949 625.133 103.184C624.111 104.48 623.346 105.422 622.58 106.365C619.899 109.074 617.346 111.783 614.665 114.257C612.367 116.259 609.686 118.144 607.261 120.028C607.006 120.264 606.623 120.382 606.367 120.617C604.452 122.855 602.793 125.211 600.623 127.214C598.58 129.098 596.155 130.629 593.985 132.396C592.836 133.339 591.687 134.517 590.538 135.577C588.751 137.579 586.325 137.226 584.155 136.755C583.006 136.519 581.219 135.341 581.091 134.399C580.836 132.632 581.091 130.629 583.389 129.452C584.283 128.98 585.176 127.803 585.432 126.742C586.453 123.68 587.857 121.206 591.687 120.853Z" fill="#16365E"/>
<path d="M753.427 337.115C747.3 338.411 741.045 336.644 734.023 337.469C732.492 338.647 724.449 336.88 723.3 334.288C717.683 337.469 712.194 336.173 706.705 333.817C705.811 333.464 705.173 332.757 704.407 332.521C702.365 331.815 700.578 330.519 701.471 328.752C702.109 327.456 704.024 326.279 705.556 325.807C707.471 325.218 709.769 325.454 711.684 325.336C711.939 326.279 712.194 326.985 712.45 327.692C712.96 327.221 713.471 326.868 713.854 326.396C715.513 324.276 718.832 324.158 720.747 326.279C721.258 326.868 721.768 327.339 722.407 327.928C723.811 324.629 725.343 323.687 728.407 324.394C730.704 324.865 733.768 322.391 735.172 326.161C737.215 323.805 739.385 323.452 742.193 324.629C744.108 325.454 746.534 325.807 748.832 324.747C749.98 324.276 751.768 324.394 753.172 324.629C756.619 325.336 760.448 324.629 763.64 326.985C764.916 327.928 767.469 327.574 769.384 328.045C770.916 328.517 772.448 329.223 774.363 330.048C773.214 331.226 772.576 331.932 771.81 332.757C772.065 333.11 772.448 333.582 772.831 334.053C770.661 334.642 768.746 335.231 766.703 335.82C766.703 336.055 766.831 336.291 766.831 336.526C767.725 336.644 768.618 336.762 769.512 336.88C769.512 337.115 769.64 337.233 769.64 337.469C768.746 337.586 767.725 338.175 767.214 337.94C764.023 336.291 761.087 337.469 757.895 337.822C756.363 337.94 754.831 337.351 753.427 337.115Z" fill="#16365E"/>
<path d="M69.3174 81.2745C68.4238 79.9788 66.6366 78.5653 66.7642 77.3874C66.8919 75.5028 68.9344 74.4427 71.3599 74.5605C71.6152 74.5605 71.9981 74.6783 72.2535 74.5605C73.7853 73.9715 75.9555 72.558 76.7214 72.9114C79.6575 74.4427 82.083 76.6807 84.6361 78.6831C85.1467 79.0365 85.2744 79.861 85.785 79.9788C91.1466 81.8635 94.2103 86.1039 98.5506 89.1665C101.231 91.0511 104.678 92.229 107.487 93.9959C110.295 95.7627 113.869 96.705 115.018 100.121C115.146 100.357 115.529 100.592 115.912 100.71C119.486 102.595 122.933 104.715 125.358 107.777C125.997 108.602 126.507 109.78 126.252 110.722C125.997 111.429 124.72 112.018 123.827 112.371C119.486 113.902 115.912 112.253 112.21 110.251C109.912 108.955 106.976 108.366 104.678 107.071C100.848 104.833 97.4017 102.123 93.6997 99.8854C91.4019 98.4719 88.9764 97.4118 86.551 96.2339C86.0403 95.9983 85.4021 95.7627 85.2744 95.2916C84.2532 92.1112 80.5511 91.7578 78.381 89.7554C75.5725 87.2818 72.6364 84.8082 69.9556 82.3346C69.7003 82.099 70.0833 81.3923 70.211 80.8033L69.3174 81.2745Z" fill="#16365E"/>
<path d="M294.886 552.318C295.014 552.554 295.269 552.79 295.397 553.143C295.652 553.85 296.418 555.028 296.162 555.263C295.397 555.852 294.375 556.323 293.354 556.441C291.95 556.677 290.546 556.441 288.758 556.441C287.992 554.674 288.375 552.672 289.141 550.434C290.035 547.842 290.418 545.133 291.184 542.424C292.077 539.244 292.46 539.126 295.652 540.657C295.78 540.539 296.035 540.422 295.907 540.304C293.099 536.063 296.928 532.765 298.333 529.232C299.609 526.051 302.418 523.813 306.12 522.753C306.503 522.635 307.013 521.811 306.886 521.575C304.46 518.866 307.269 516.628 307.907 514.39C308.8 511.092 310.205 507.912 311.481 504.731C311.737 504.142 312.12 503.553 312.502 503.082C313.268 502.258 314.034 501.433 315.056 500.373C315.949 500.609 317.353 500.609 316.332 498.488C315.183 496.133 316.077 494.248 318.375 492.834C319.013 492.481 319.524 491.892 319.779 491.303C322.077 487.769 322.97 487.652 326.545 490.832C326.162 491.421 325.651 492.01 325.14 492.834C327.566 494.719 326.545 497.075 325.906 499.313C325.396 501.433 325.396 504.26 320.672 503.553C324.885 506.969 321.311 509.796 320.928 512.741C320.672 514.272 320.29 516.157 319.141 517.335C314.8 522.164 313.268 528.054 310.077 533.472C309.949 533.708 309.822 533.943 309.694 534.179C305.354 538.89 302.673 544.309 300.12 549.845C299.226 551.965 298.077 554.321 294.631 552.436L294.886 552.318Z" fill="#16365E"/>
<path d="M721.896 88.5779C721.385 92.1116 718.066 93.0539 715.513 94.8208C712.322 97.0588 707.982 97.6477 705.173 99.768C700.45 103.419 694.067 103.537 689.216 106.718C687.174 108.131 684.748 109.545 682.195 109.78C678.493 110.251 680.153 106.011 678.238 104.951C677.599 106.718 677.216 108.72 676.067 110.251C674.28 112.96 673.004 112.843 671.089 110.016C670.323 110.487 669.302 110.84 668.791 111.429C667.642 112.843 666.366 112.136 665.344 111.429C663.557 110.134 663.557 106.718 665.344 105.54C669.046 103.302 672.748 101.064 676.706 99.179C681.557 96.8232 686.535 94.703 691.514 92.5828C692.025 92.3472 692.408 92.1116 692.918 91.876C697.131 90.3447 701.471 89.1668 705.556 87.4C708.748 86.1043 711.556 83.9841 714.492 82.335C717.683 80.5681 720.875 78.9191 724.066 77.1522C725.215 76.5633 729.045 78.3301 729.938 79.8614C732.109 83.6307 731.726 84.9264 727.513 87.4C725.726 88.6957 723.683 89.049 721.896 88.5779Z" fill="#16365E"/>
<path d="M479.732 370.215C483.945 370.804 488.03 378.342 486.115 381.405C489.051 382.465 491.221 386.823 490.455 390.239C493.136 392.006 494.923 394.244 495.689 397.307C496.072 398.838 497.476 400.251 497.987 401.783C499.647 405.788 501.306 409.91 502.583 414.033C503.732 417.92 504.625 421.925 505.263 425.93C505.519 427.461 504.625 429.11 504.242 430.641C502.072 429.581 500.285 428.639 498.498 427.932C495.179 426.636 495.434 423.456 494.03 421.218C492.753 419.333 491.86 417.213 490.838 415.211C490.2 413.915 489.306 412.619 488.923 411.206C488.668 409.91 488.668 408.497 487.136 407.554C486.37 407.083 486.498 405.552 485.987 404.61C485.094 403.078 483.434 401.783 483.051 400.134C482.413 396.953 480.243 394.48 479.222 391.417C478.456 389.297 476.924 387.294 476.03 385.174C474.243 381.405 472.711 377.636 471.179 373.866C470.796 372.924 470.669 371.864 470.541 370.922C469.903 367.977 472.328 365.974 475.52 366.917C477.69 367.388 480.371 366.917 479.732 370.215Z" fill="#16365E"/>
<path d="M528.88 275.04C525.433 276.572 523.135 277.749 520.582 278.81C520.072 277.514 519.689 276.689 519.05 275.158C518.54 276.336 518.157 276.689 518.284 277.043C519.178 279.987 517.774 281.283 514.582 281.754C513.816 281.872 512.923 282.108 512.54 282.579C510.497 285.288 507.178 286.113 504.37 287.879C502.583 288.94 500.285 289.293 498.115 289.882C497.604 290 496.838 289.764 496.455 290C494.03 291.649 492.881 290.824 492.753 288.94C491.221 288.704 489.562 288.822 488.923 288.115C488.285 287.526 488.54 286.113 488.923 285.052C489.179 284.11 489.817 283.168 490.711 282.579C493.647 280.576 496.072 278.221 500.03 277.514C502.2 277.161 503.987 275.04 506.157 274.098C510.497 271.978 515.093 269.975 519.433 267.855C520.965 267.148 522.369 266.088 524.029 265.028C524.157 265.735 524.284 266.442 524.412 267.148C524.667 267.148 525.05 267.266 525.178 267.148C525.561 266.913 526.071 266.677 526.199 266.442C528.369 263.379 530.922 261.259 535.518 261.848C536.284 261.966 537.05 260.552 538.071 260.199C539.858 259.374 541.901 258.785 543.688 258.078C544.071 257.961 544.582 257.843 544.837 257.607C545.73 256.312 547.645 256.076 548.794 257.136C549.432 257.725 550.581 258.55 550.964 258.432C552.113 257.961 552.879 257.018 554.156 255.958C554.922 256.429 557.858 253.838 557.985 257.607C558.624 257.136 559.007 256.665 559.517 256.547C560.028 256.429 560.922 256.429 561.049 256.665C561.688 258.196 562.198 259.728 562.326 261.377C562.326 261.966 560.922 262.672 559.9 263.143C556.071 264.557 552.113 265.97 548.284 267.148C547.39 267.384 546.241 266.795 545.22 266.795C544.454 266.795 543.177 266.795 543.177 267.031C542.028 270.8 538.071 271.742 535.007 273.038C533.475 273.745 530.922 272.684 528.88 272.449C527.986 272.331 526.965 272.213 526.071 271.978C526.454 272.92 526.837 273.745 527.348 274.569C527.348 274.805 527.986 274.805 528.88 275.04Z" fill="#16365E"/>
<path d="M248.674 185.99C247.653 185.166 246.632 184.341 245.483 183.517C244.845 183.045 244.462 182.339 243.951 182.221C239.866 181.396 237.696 178.569 236.292 175.625C235.271 173.387 233.483 172.209 231.696 171.384C228.249 169.853 227.611 166.673 225.569 164.435C224.547 163.257 223.909 161.843 222.505 160.783C222.76 159.841 223.143 159.016 223.398 158.192C223.526 157.367 223.398 156.425 223.654 155.6C223.781 154.894 224.037 154.069 224.547 153.48C224.93 153.127 226.079 152.773 226.462 153.009C227.1 153.48 227.483 154.305 227.866 155.011C228.122 155.6 228.505 156.189 228.76 156.778C229.654 156.071 230.292 155.483 230.93 155.011C231.696 155.954 232.462 156.778 233.356 157.721C233.739 158.192 234.249 158.663 234.632 159.016C235.781 159.959 236.93 161.019 238.207 161.608C243.951 164.552 248.036 169.028 251.993 173.622C252.249 173.976 252.759 174.447 253.27 174.565C257.993 175.625 259.398 179.865 262.334 182.456C265.908 185.637 268.972 189.171 272.546 192.351C273.567 193.293 275.993 198.123 275.738 199.536C275.355 201.421 273.823 201.774 271.908 200.714C271.525 200.478 270.887 200.125 270.504 200.243C266.291 201.303 264.248 198.24 261.568 196.474C260.419 195.649 259.398 194.471 258.121 193.882C256.334 193.058 254.674 192.469 254.164 190.466C254.164 190.113 253.27 189.877 252.887 189.524C251.483 188.464 250.206 187.404 248.802 186.344C248.547 186.226 248.674 186.108 248.674 185.99Z" fill="#16365E"/>
<path d="M767.469 212.846C765.938 213.671 765.044 214.378 764.15 214.613C762.108 215.085 760.065 215.32 758.023 215.556C755.214 215.909 753.172 214.378 751.512 212.611C751.385 212.493 751.257 212.258 751.257 212.14C751.768 210.608 751.895 208.724 753.044 207.546C753.81 206.604 755.853 206.25 757.385 206.368C760.193 206.604 762.491 206.486 763.64 203.777C763.767 203.541 764.15 203.188 764.406 203.188C767.597 203.305 770.15 201.539 773.086 200.832C774.873 200.361 776.788 200.596 778.575 200.361C781.001 200.007 783.554 199.654 785.98 199.183C787.767 198.947 789.426 198.594 791.213 198.241C792.107 198.123 793.128 198.241 793.639 197.887C796.703 195.414 800.022 196.591 803.213 197.063C803.596 197.063 804.234 197.063 804.617 196.945C808.575 195.06 808.702 195.06 810.745 198.712C811.128 197.298 811.511 196.238 811.894 194.942C813.681 196.591 815.468 197.887 816.745 199.536C817.255 200.243 817.255 201.539 816.745 202.363C816.489 202.952 815.085 203.305 814.192 203.423C813.298 203.541 812.404 203.07 811.383 203.07C810.745 203.07 809.851 203.423 809.596 203.777C807.809 207.075 806.404 207.899 802.447 207.782C801.298 210.02 798.618 211.315 795.809 211.08C794.66 210.962 793.256 211.433 792.107 211.551C789.043 211.786 785.852 212.022 782.788 212.258C782.405 212.258 781.895 212.14 781.512 212.258C778.958 212.964 776.278 213.907 773.724 214.613C771.81 215.085 769.895 215.556 768.618 213.318C768.363 212.847 767.469 212.847 767.469 212.729V212.846Z" fill="#16365E"/>
<path d="M463.137 93.8788C463.392 93.0543 463.52 92.112 463.775 90.6985C465.052 91.8764 465.818 92.7009 466.711 93.6433C466.328 91.4053 467.733 90.3451 469.903 90.4629C470.924 90.4629 472.456 91.1697 472.711 91.8764C473.988 95.8813 475.264 99.6506 471.945 103.655C470.413 105.54 470.796 108.603 470.158 111.194C469.903 112.136 469.647 113.314 469.009 114.139C467.86 115.552 466.456 116.73 465.179 118.026C464.924 118.261 464.669 118.615 464.796 118.85C466.201 124.504 462.882 129.216 461.35 134.163C461.094 135.105 459.69 135.694 458.669 136.283C457.392 136.872 456.626 137.226 457.265 138.875C458.031 140.642 457.265 142.644 455.095 143.822C453.69 144.646 452.541 145.824 451.137 146.884C450.754 147.12 450.116 147.356 449.605 147.356C448.329 147.238 445.776 143.586 445.52 142.408C444.244 137.461 447.563 133.456 448.456 128.98C449.478 124.387 451.903 120.028 453.69 115.552C453.946 114.846 454.073 114.139 454.329 113.432C455.478 110.016 456.882 106.6 457.903 103.066C458.286 101.771 458.541 100.357 458.541 99.0616C458.924 97.5303 461.222 94.4678 463.137 93.8788Z" fill="#16365E"/>
<path d="M648.877 246.771C648.877 247.006 648.621 247.831 648.238 248.891C647.473 248.302 647.09 247.948 646.579 247.477C646.451 247.595 646.324 247.713 646.324 247.948C646.451 249.833 645.941 251.247 643.77 252.071C641.473 253.013 639.43 254.427 637.26 255.369C634.962 256.312 631.516 255.487 630.622 254.191C629.473 252.542 629.856 249.48 632.026 248.066C635.218 245.946 638.537 244.297 641.856 242.412C644.281 240.999 646.707 239.585 649.132 238.172C652.323 236.405 655.515 234.403 658.834 232.871C660.11 232.282 661.898 232.636 663.557 232.636C663.302 232.282 663.047 231.811 662.791 231.34C665.344 229.102 668.28 227.924 671.855 227.806C672.621 227.806 673.259 226.628 674.025 226.157C675.557 225.097 676.833 223.095 678.621 224.744C682.323 222.977 685.642 221.21 689.216 219.679C692.918 218.147 696.748 216.734 700.578 215.438C702.492 214.732 703.514 214.967 703.769 217.559C704.024 219.914 703.131 221.799 702.875 223.919C702.875 224.39 702.109 224.862 701.599 225.097C697.514 226.511 693.301 227.806 689.088 229.102C688.961 229.102 688.833 229.102 688.833 229.22C686.408 231.693 682.578 230.869 679.77 232.165C676.195 233.814 673.131 236.169 669.685 238.054C666.876 239.585 664.068 241.117 661.132 242.412C658.196 243.826 655.26 245.121 652.196 246.299C651.43 246.535 650.281 246.653 648.877 246.771Z" fill="#16365E"/>
<path d="M626.026 512.152C625.771 513.683 625.643 515.097 625.388 517.335C623.984 516.157 623.09 515.804 622.58 515.097C621.303 512.859 618.878 512.27 616.452 511.681C615.814 511.563 614.92 511.21 614.92 510.856C614.793 507.558 611.218 506.616 609.431 504.731C605.984 501.198 602.027 498.253 598.836 494.601C597.559 493.07 596.41 491.539 594.495 490.596C594.368 490.479 593.985 490.361 594.112 490.361C594.24 487.416 590.921 486.827 589.517 484.943C587.346 481.998 586.836 478.935 587.602 475.637C587.985 473.988 589.134 473.046 590.921 473.399C592.708 473.87 595.772 473.046 594.878 476.344C601.389 474.93 614.665 485.767 613.005 490.714C614.793 491.657 616.707 492.363 618.112 493.423C620.792 495.426 616.452 496.25 616.963 498.371C621.558 496.722 623.729 498.842 625.643 502.258C626.792 504.142 629.218 505.556 631.388 506.851C633.175 508.029 633.175 509.089 632.026 510.385C629.856 512.859 628.324 513.33 626.026 512.152Z" fill="#16365E"/>
<path d="M445.265 216.263C445.648 216.852 446.031 217.558 446.414 218.147C447.563 219.561 448.201 220.857 445.52 221.328C445.01 221.445 444.627 222.152 444.116 222.506C443.478 223.095 442.712 223.566 442.074 224.155C441.435 222.977 439.393 222.27 440.925 220.621C441.18 220.385 441.308 220.032 441.691 219.679C437.861 216.969 440.286 214.025 441.435 211.198C443.35 206.722 445.393 202.363 447.435 198.005C448.073 196.71 448.712 195.414 449.478 194.118C451.137 191.056 452.797 187.993 454.712 185.048C455.477 183.87 457.137 183.046 457.52 181.75C458.924 177.392 463.009 174.918 465.818 171.502C467.35 169.618 469.647 169.029 472.2 170.678C473.094 171.267 474.243 171.267 476.03 171.738C473.732 173.976 471.562 175.978 469.392 178.099C469.52 178.334 469.647 178.452 469.775 178.688C470.286 178.452 470.796 178.216 471.434 177.981C472.328 177.745 473.222 177.627 474.115 177.392C473.988 178.216 473.988 179.159 473.605 179.748C472.966 180.69 471.945 181.397 471.562 182.104C471.052 183.87 471.052 185.755 470.158 187.168C467.222 191.291 464.413 195.296 462.882 200.008C461.988 202.481 459.945 205.073 457.775 206.839C455.605 208.606 456.626 211.198 455.095 212.847C454.201 213.907 453.052 214.849 451.775 215.556C450.882 216.145 449.605 216.734 448.584 216.734C447.435 216.969 446.414 216.498 445.265 216.263Z" fill="#16365E"/>
<path d="M348.374 559.621C347.991 559.739 347.48 559.975 347.097 560.21C347.353 564.215 348.629 568.456 344.8 572.107C346.842 574.109 345.693 576.701 344.8 579.292C343.906 582.237 342.885 585.064 341.608 587.891C340.204 591.307 338.8 594.723 336.757 597.785C333.821 602.026 330.63 606.148 326.928 609.918C324.757 612.156 321.438 612.627 318.119 610.507C317.864 608.151 317.736 605.677 319.779 603.439C320.8 602.261 321.183 600.494 322.077 599.199C323.609 596.961 325.396 594.723 327.055 592.485C327.566 591.896 327.949 591.189 328.204 590.482C328.715 589.187 328.842 587.773 329.353 586.36C329.991 584.239 331.523 582.59 332.545 580.823C333.949 578.468 333.693 575.405 334.076 572.578C334.587 569.044 335.098 565.511 335.481 561.977C335.608 561.27 335.608 560.564 335.481 559.857C335.225 558.208 339.566 552.083 341.353 551.611C343.395 551.023 346.076 552.789 346.842 555.027C347.353 556.323 347.863 557.854 348.374 559.621Z" fill="#16365E"/>
<path d="M234.505 257.489C231.568 259.256 228.377 258.549 225.952 256.429C223.526 254.427 220.718 252.66 217.782 251.129C214.845 249.597 214.59 249.479 216.25 247.241C214.718 246.652 213.186 245.946 211.654 245.357C211.399 245.239 211.016 245.003 210.633 245.121C209.739 245.239 208.335 245.828 207.824 245.357C206.42 244.297 205.271 242.765 203.995 241.47C203.612 240.999 203.356 240.527 202.846 240.292C201.314 239.467 199.782 236.758 200.676 235.58C201.825 234.167 203.612 233.931 205.399 234.638C206.037 234.873 206.803 235.109 207.569 235.227C211.016 236.169 211.654 237.229 210.25 240.174C210.122 240.527 209.995 240.881 210.505 241.705C210.888 241.352 211.526 241.116 211.654 240.763C213.058 237.583 213.441 237.583 216.377 239.585C217.399 240.292 218.803 240.527 219.952 240.881C222.25 241.823 224.675 242.53 226.845 243.708C227.483 243.943 227.228 245.475 227.356 246.535C232.079 245.003 235.398 248.066 238.845 250.893C240.121 251.953 241.781 253.013 243.313 253.249C248.291 253.955 251.61 257.018 254.802 259.963C256.844 261.847 259.525 261.73 261.44 263.143C262.589 263.968 263.482 264.91 264.504 265.852C266.036 267.384 267.695 268.915 268.972 270.564C269.993 271.977 270.504 273.744 271.014 275.393C271.142 275.747 270.376 276.571 269.865 276.689C267.312 277.514 265.525 276.689 264.121 274.687C263.227 273.509 262.078 272.449 260.929 271.388C260.674 271.624 260.419 271.742 260.163 271.977C260.419 272.331 260.674 272.684 261.057 272.92L260.802 273.626C259.908 273.273 258.759 273.037 257.993 272.566C256.334 271.742 254.547 270.917 253.27 269.739C251.866 268.561 250.972 267.03 249.44 265.263C248.419 265.617 246.632 267.737 244.462 265.617C243.057 264.321 241.526 263.143 240.249 261.73C237.185 261.612 234.76 260.787 234.505 257.489Z" fill="#16365E"/>
<path d="M309.822 163.492C310.332 163.728 310.971 164.081 311.609 164.435C312.12 164.788 312.63 165.377 313.141 165.377C315.566 165.377 316.077 167.026 316.97 168.557C317.609 169.735 319.013 170.442 320.162 171.502C321.183 172.444 322.46 173.387 322.97 174.564C323.864 176.214 324.119 178.098 324.758 179.865C324.885 180.218 325.906 180.336 326.545 180.572C327.566 181.043 328.843 181.396 329.608 182.103C330.247 182.692 330.374 183.752 330.757 184.577C331.906 186.579 332.417 188.699 334.459 190.466C337.14 192.586 338.927 195.649 340.97 198.24C341.225 198.476 341.48 198.947 341.353 199.183C340.332 202.834 343.14 205.308 345.055 207.899C348.119 211.904 348.629 216.144 348.374 220.738C348.246 223.094 346.459 224.979 344.289 224.861C342.502 224.743 340.459 222.858 339.566 221.327C338.161 219.089 337.523 216.38 336.374 213.906C335.736 212.493 334.715 211.315 334.076 209.902C333.438 208.724 333.183 207.428 332.672 206.25C332.162 205.19 331.523 204.248 330.757 203.423C328.46 200.478 325.396 197.887 324.119 194.707C322.97 191.88 320.29 190.231 319.268 187.639C318.885 186.579 318.375 185.401 317.864 184.341C317.481 183.399 316.97 182.81 316.205 181.985C314.545 180.336 310.715 179.394 312.12 175.86C312.247 175.507 311.481 174.8 311.098 174.211C310.588 173.387 310.205 172.562 309.694 171.738C309.439 171.384 309.183 171.031 308.8 170.795C306.758 169.617 306.503 165.495 308.545 164.199C308.8 163.846 309.183 163.728 309.822 163.492Z" fill="#16365E"/>
<path d="M638.664 418.39C638.409 418.273 637.643 418.037 637.26 417.919C637.388 414.621 637.515 411.676 637.771 408.26C641.473 408.26 645.302 408.143 648.494 410.97C649.77 412.148 651.43 412.972 652.962 413.914C654.749 414.974 656.536 415.917 657.047 418.155C657.174 419.097 658.706 419.686 659.345 420.511C662.153 423.809 664.834 426.989 667.515 430.405C668.153 431.112 668.153 432.172 668.153 432.525C669.557 433.468 670.834 433.939 671.855 434.763C674.025 436.53 676.068 438.533 677.982 440.535C680.535 443.009 680.28 443.833 676.706 445.011C676.706 444.304 676.578 443.715 676.578 443.126C674.663 443.598 673.004 443.833 670.961 444.304C669.812 447.602 675.046 445.482 675.302 447.956C674.663 447.956 674.025 448.074 673.259 448.191C673.131 449.251 673.004 450.312 672.621 451.843C671.217 450.901 670.195 450.429 669.174 449.84C667.259 448.545 665.344 447.367 663.685 445.836C660.494 443.009 657.557 440.064 654.494 437.119C654.111 436.766 653.855 436.295 653.6 435.941C652.068 434.292 651.175 432.172 651.175 429.581C649.515 431.583 648.238 430.641 646.962 429.581C644.409 427.342 641.728 425.222 639.558 422.866C638.664 421.924 638.92 420.393 638.537 418.626L638.664 418.39Z" fill="#16365E"/>
<path d="M402.755 112.843C403.521 114.727 404.032 115.905 404.67 117.083C405.819 119.321 407.351 121.441 407.989 123.679C408.883 126.86 410.287 130.158 409.394 133.574C409.138 134.516 410.032 135.576 410.16 136.636C410.415 137.697 410.16 138.992 410.67 139.935C414.245 146.06 413.862 152.656 413.479 159.252C413.096 164.199 413.351 169.147 411.436 173.858C410.925 175.036 410.032 176.214 409.138 177.156C407.989 178.334 406.713 178.099 405.564 177.038C404.926 176.45 404.16 176.096 403.011 175.272C403.521 173.269 404.032 170.796 404.543 168.322C401.224 166.555 400.075 161.372 403.521 157.25C402.755 156.661 402.117 156.072 401.99 155.954C402.245 153.716 402.373 152.185 402.628 150.536C402.883 148.887 403.394 147.238 403.649 145.588C403.904 144.057 404.287 142.408 404.287 140.877C404.287 140.406 403.649 139.935 403.011 139.228C402.628 140.17 402.373 140.877 402.117 141.466C399.436 141.348 399.309 139.817 398.926 137.814C398.032 133.338 396.5 128.98 395.479 124.504C394.713 121.559 394.203 118.497 393.82 115.434C393.82 114.963 395.862 113.903 395.862 113.903C398.16 116.494 400.202 115.081 402.755 112.843Z" fill="#16365E"/>
<path d="M235.526 510.032C232.845 508.854 231.441 505.203 232.59 502.965C235.143 498.253 237.185 493.306 240.249 488.947C243.057 484.943 243.44 480.231 245.738 475.991C248.547 471.043 250.845 465.743 253.525 460.796C254.164 459.735 255.312 458.322 256.461 458.086C258.376 457.733 260.929 458.086 261.695 460.089C262.078 461.149 261.44 462.798 260.674 463.858C259.78 465.154 258.376 466.096 257.1 467.392C258.759 467.156 259.908 467.038 261.312 466.921C261.312 470.808 261.312 474.459 261.312 478.111C261.312 478.817 260.802 479.406 260.546 480.113C260.036 481.173 259.653 482.351 259.014 483.176C258.376 484 257.355 484.589 256.206 485.06C255.823 486.12 254.164 487.063 255.951 488.712C256.461 489.183 255.185 491.539 254.547 492.835C253.653 494.366 252.376 495.779 251.227 497.311C248.93 500.491 246.632 503.671 244.206 506.969C243.823 507.441 243.313 508.265 243.057 508.147C240.249 507.676 238.207 509.443 235.526 510.032Z" fill="#16365E"/>
<path d="M314.8 20.4951C316.205 20.8485 317.864 20.9663 319.141 21.5552C321.055 22.4976 322.715 23.5577 324.375 24.7356C324.757 24.9711 324.885 25.7957 325.268 26.5024C326.034 26.0313 326.545 25.6779 327.055 25.3245C330.247 28.5049 333.566 31.3318 336.502 34.5122C338.289 36.5146 339.693 38.7526 341.225 40.8728C342.246 42.0507 343.268 43.8176 344.672 44.171C347.991 45.1133 349.267 47.5869 350.927 49.8249C352.97 52.5341 355.267 55.0077 357.055 57.9524C358.459 60.3082 361.267 62.1929 360.884 65.3732C360.757 66.3155 361.522 67.4934 362.033 68.4357C363.948 71.8517 362.927 73.9719 358.714 75.1498C355.523 71.2627 352.204 67.2579 348.884 63.253C348.757 63.1352 348.629 62.8996 348.629 62.8996C345.821 62.0751 345.055 59.7193 344.034 57.7168C343.906 57.4813 343.523 57.0101 343.268 57.0101C339.821 56.8923 339.566 53.8298 337.906 52.1807C336.63 50.885 335.353 49.5893 334.076 48.2936C332.672 46.7623 331.396 45.2311 329.991 43.6998C329.353 42.9931 328.587 42.2863 327.949 41.5796C327.438 41.1084 326.545 40.4017 326.672 39.9305C326.8 39.3416 327.694 38.8704 328.204 38.3992C328.587 38.0459 328.97 37.8103 329.353 37.5747C328.97 37.2213 328.715 36.6324 328.332 36.5146C326.545 36.0434 324.502 35.9256 322.715 35.4545C321.949 35.2189 321.183 34.7477 320.672 34.1588C319.651 33.0987 318.885 31.9208 317.992 30.8607C316.587 29.0938 315.183 27.327 313.779 25.4423C313.524 25.0889 313.779 24.5 313.907 24.0288C314.162 22.7331 314.545 21.3196 314.8 20.4951Z" fill="#16365E"/>
<path d="M492.753 0.470558C497.349 4.12206 498.625 8.36251 496.583 13.3097C496.583 14.3698 496.583 15.5477 496.583 16.8434C496.583 17.3146 496.328 17.7857 496.583 18.0213C499.136 20.9661 496.838 24.0286 497.093 26.9734C497.221 28.2691 496.838 29.6825 496.583 30.8605C496.328 31.9206 495.817 32.8629 495.434 33.8052C494.413 36.3966 493.136 38.988 492.37 41.6972C491.477 44.9953 490.328 47.94 487.647 50.5314C486.753 51.356 486.37 52.4161 485.732 53.3584L486.37 53.9473C484.966 54.3007 483.562 54.8897 482.158 55.0075C478.966 55.243 477.051 53.4762 477.051 50.6492C477.051 48.1756 477.307 45.8198 478.711 43.464C479.988 41.226 480.243 38.5168 480.881 36.0432C481.136 34.8653 481.009 33.5696 481.647 32.6273C485.094 27.5623 484.328 22.0262 484.328 16.49C484.328 14.0164 483.69 11.3073 484.328 8.83367C485.221 5.88891 487.136 3.17973 488.668 0.470558C488.796 0.234978 489.817 0.117188 490.455 0.117188C491.349 0.234978 492.115 0.352768 492.753 0.470558Z" fill="#16365E"/>
<path d="M146.677 500.726C145.656 500.372 144.762 500.019 144.252 499.666C143.103 494.012 146.422 490.125 149.868 485.766C150.251 486.709 150.507 487.533 151.017 488.122C151.273 488.358 151.911 488.476 152.422 488.358C152.677 488.358 152.932 487.415 152.805 487.298C148.72 484.117 152.039 481.526 154.209 479.995C156.762 478.228 158.038 475.99 159.443 473.752C160.592 471.985 162.379 470.454 164.677 468.098C164.804 465.86 166.336 463.268 169.528 461.266C170.932 460.324 171.825 458.557 172.208 457.026C172.719 455.259 173.357 454.434 175.4 454.081C177.442 453.61 179.229 452.785 179.995 450.547C180.378 449.487 181.655 448.78 182.676 447.72C181.655 445.835 183.697 443.009 186.378 443.126C187.016 443.126 187.655 442.773 188.165 442.42C188.931 441.948 189.57 441.477 190.591 440.771C190.846 443.48 191.101 445.482 191.357 447.367C191.101 447.485 190.974 447.602 190.718 447.72C189.952 446.778 189.059 445.835 188.038 444.54C186.761 444.304 185.229 444.658 185.485 446.778C185.485 447.249 186.378 448.073 187.016 448.073C190.591 448.309 190.591 448.309 188.931 451.607C188.038 451.254 187.144 450.9 185.485 450.311C189.314 455.259 185.485 457.968 182.548 460.677C180.634 462.444 179.612 462.208 178.719 459.853C178.463 459.381 178.208 458.792 177.57 458.203C179.229 462.208 176.549 465.506 175.783 469.276C175.144 468.805 174.634 468.569 173.868 468.098C173.613 468.805 173.102 469.276 173.23 469.865C173.868 474.458 170.804 477.403 167.485 480.23C166.208 481.408 165.06 482.704 164.038 484.117C161.613 487.533 159.698 491.42 156.89 494.601C155.102 496.485 154.719 499.901 150.762 499.901C149.868 499.901 149.23 501.668 148.209 502.375C147.571 502.846 146.422 503.082 145.656 503.435C145.911 502.728 146.166 501.904 146.549 501.197C146.677 500.961 146.805 500.726 147.06 500.372V500.726H146.677Z" fill="#16365E"/>
<path d="M39.5735 317.915C41.3606 315.442 41.233 314.97 38.0416 313.675C38.4245 313.439 38.6799 313.321 38.9352 313.321C43.7861 312.85 48.637 312.497 53.488 312.144C54.8922 312.026 56.2964 312.144 57.573 312.026C59.6155 312.026 61.658 311.672 63.7005 311.908C67.9131 312.261 71.8705 312.732 76.0831 311.319C79.2745 310.259 82.8489 310.377 86.2956 310.494C92.6785 310.494 99.0613 309.906 105.444 309.434C107.87 309.199 110.55 309.552 112.976 310.023C114.125 310.259 115.912 311.319 115.912 311.908C115.912 312.968 114.891 314.499 113.869 314.97C112.465 315.677 110.423 315.913 108.891 315.795C106.976 315.677 105.444 315.913 103.657 316.737C101.359 317.68 98.6783 318.033 96.1252 318.033C92.9338 318.033 89.9977 317.915 87.1892 319.564C86.8063 319.8 86.0403 320.153 85.6574 320.035C81.317 318.386 77.4874 321.567 73.147 320.978C69.3174 320.507 65.2324 321.096 61.275 321.213C58.3389 321.331 55.4028 321.449 52.3391 321.449C51.3178 321.449 50.1689 321.213 49.403 320.86C48.2541 320.271 47.3605 319.8 45.9563 320.742C44.6797 321.685 44.0414 320.978 41.7436 318.151C41.8713 319.093 41.9989 320.035 42.1266 321.567C40.85 320.86 39.9564 320.389 38.9352 320.035C37.4033 321.096 34.2119 320.507 33.1906 318.74C32.8077 318.033 33.1906 316.148 33.8289 315.795C36.6374 314.146 37.7863 316.737 39.5735 317.915Z" fill="#16365E"/>
<path d="M538.199 198.005C538.709 199.89 538.199 201.186 535.901 202.364C532.327 204.131 529.263 206.604 525.688 208.371C523.646 209.313 521.603 210.727 518.795 209.902C516.37 209.196 515.604 208.135 517.008 206.015C517.136 205.78 517.263 205.544 517.518 205.308C521.603 202.599 525.688 199.89 529.773 197.181C530.412 196.71 531.433 196.474 531.944 196.003C536.029 191.998 541.39 189.996 546.496 187.522C547.39 187.051 548.539 186.462 549.05 185.637C551.347 181.986 555.177 179.984 559.262 178.334C562.709 176.921 565.645 174.801 569.092 172.916C569.475 173.505 569.858 174.094 570.241 174.683C570.624 174.447 570.879 174.447 570.879 174.33C570.879 172.092 570.879 170.325 574.326 169.382C577.134 168.676 579.304 166.084 581.857 164.435C583.9 163.022 585.942 161.49 588.112 160.313C589.006 159.841 590.41 159.606 591.304 159.959C594.878 161.137 595.644 162.315 594.751 164.2C593.857 166.084 591.304 166.909 589.261 165.966C588.751 168.558 586.963 170.089 584.538 171.503C581.602 173.034 579.049 175.036 576.24 176.803C574.198 178.099 572.028 179.041 569.858 180.219C569.219 180.572 568.836 181.161 568.326 181.515C567.943 181.868 567.432 182.457 567.049 182.457C563.219 182.457 561.943 185.402 559.645 187.051C557.475 188.7 555.049 190.114 552.752 191.527C550.709 192.823 548.667 194.118 546.624 195.296C544.965 196.239 543.433 197.299 541.646 197.888C540.752 198.477 539.348 198.005 538.199 198.005Z" fill="#16365E"/>
<path d="M120.252 378.578C118.848 377.518 117.827 376.811 116.167 375.515C115.657 376.929 115.018 377.989 115.274 378.696C116.295 381.052 114.125 380.934 112.848 381.405C111.955 381.876 110.55 381.758 109.784 382.347C107.742 384.114 105.316 384.821 102.636 385.174C102.125 385.174 101.614 385.763 101.359 386.117C99.5719 388.237 95.2316 389.061 93.0614 387.412C92.5508 387.059 93.0614 385.763 93.0614 384.703C92.5508 384.821 91.6572 384.939 90.7636 385.056C90.8913 381.641 91.1466 381.405 94.4656 380.345C95.3592 379.52 96.1252 378.342 97.2741 377.871C100.593 376.576 103.785 375.162 106.593 372.924C108.38 371.628 111.189 370.097 113.614 371.746C115.657 370.686 117.316 369.744 119.486 368.684C119.359 369.979 119.359 370.568 119.231 371.628C121.401 370.333 123.316 369.155 125.103 368.095C126.89 367.152 128.805 366.328 130.72 365.621C133.018 364.679 135.316 363.972 137.486 362.912C139.401 361.97 140.422 362.441 141.06 364.208C141.315 364.797 141.698 365.386 142.592 365.739C141.315 363.03 142.464 362.087 144.89 361.381C147.954 360.321 150.762 358.907 153.57 357.611C155.23 356.787 156.507 356.669 157.273 358.554C158.294 357.847 159.06 357.258 159.953 356.787C162.251 355.727 165.57 357.611 164.932 359.732C164.549 361.145 162.889 362.323 161.996 363.619C160.847 365.268 159.443 365.621 157.273 364.914C156.507 364.679 155.23 365.857 153.826 366.446C153.188 366.21 152.166 365.739 151.017 365.15C150.507 366.799 150.507 368.684 149.613 369.39C148.592 370.215 146.422 369.626 144.89 370.097C139.911 371.393 134.933 372.924 129.954 374.455C129.316 374.691 128.805 375.28 128.295 375.751C126.635 377.518 125.358 377.282 124.72 375.28C123.316 376.458 121.784 377.4 120.252 378.578Z" fill="#16365E"/>
<path d="M4.85094 388.118C7.40406 390.592 5.61687 392.83 4.21266 394.597C2.80844 396.364 0.893594 395.186 0 394.479C0.382969 391.888 0.510625 389.532 1.14891 387.294C1.40422 386.234 2.55312 385.292 3.57437 384.703C5.23391 383.76 7.40406 383.407 8.93594 382.465C11.1061 381.169 12.8933 379.284 15.0634 377.871C16.2123 377.046 17.7442 376.339 19.1484 375.633C20.425 374.926 21.8292 374.455 23.1058 373.866C24.127 373.395 25.1483 372.924 26.2972 372.335C26.2972 371.981 26.4248 371.392 26.5525 370.332C27.7014 371.039 28.595 371.628 29.7439 372.452C29.4886 371.392 29.2333 370.686 29.1056 369.979C29.3609 369.743 29.4886 369.625 29.7439 369.508C32.68 368.212 35.6161 366.681 38.5522 365.503C40.9777 364.443 43.6584 363.618 46.0839 362.558C48.8923 361.38 51.4455 359.849 54.8922 359.849C57.19 359.849 59.2325 358.082 61.658 357.611C62.8069 357.375 64.4664 357.964 65.6153 358.553C65.8706 358.789 65.2323 360.32 64.977 361.38C63.9558 365.267 60.3814 366.21 56.807 367.152C55.6581 367.387 54.7645 368.212 53.8709 368.683C53.2327 369.036 52.5944 369.154 51.9561 369.508C49.7859 370.568 47.7434 371.746 45.5733 372.57C41.6159 373.984 39.7011 378.106 34.9778 378.577C33.5736 378.695 31.9141 379.755 31.0205 380.698C28.7227 383.171 27.1908 383.642 23.4887 382.229C22.7228 383.525 21.9569 384.938 21.1909 386.352C21.4462 386.469 21.7016 386.587 21.9569 386.823C20.9356 387.176 19.9144 387.53 18.7655 387.883V385.409C17.1059 388.472 15.3187 390.356 11.9997 390.828C10.4678 391.063 9.70187 391.417 8.68062 389.768C8.04234 388.943 6.1275 388.707 4.85094 388.118ZM32.68 378.106C33.4459 376.928 34.0842 376.222 34.3395 375.515C34.4672 375.279 33.4459 374.455 33.3183 374.455C32.4247 375.044 31.6588 375.633 30.8928 376.339C30.8928 376.457 31.6587 377.164 32.68 378.106Z" fill="#16365E"/>
<path d="M389.862 392.477C388.458 391.77 387.692 391.416 386.16 390.71C386.543 392.83 387.054 394.243 387.181 395.892C387.181 396.599 386.671 397.424 386.543 398.248C386.288 399.544 385.267 401.311 385.905 402.018C387.437 403.784 386.543 405.198 385.65 406.494C384.756 407.789 383.607 408.967 382.33 410.381C382.969 412.501 381.82 414.857 378.884 415.917C377.479 416.506 376.458 415.917 376.331 414.621C376.075 412.265 375.437 409.909 375.565 407.554C375.565 403.078 375.692 398.484 376.331 394.008C376.969 389.296 378.118 384.702 378.884 380.109C379.777 375.161 381.054 370.096 380.926 365.031C380.926 361.851 382.586 359.731 384.118 357.493C384.756 356.668 386.543 355.726 387.054 355.962C388.203 356.433 389.096 357.728 389.734 358.906C390.5 360.202 390.756 361.615 391.394 362.911C391.905 364.089 392.543 364.914 391.649 366.327C390.883 367.741 391.266 369.743 391.266 371.51C391.266 373.159 391.522 374.808 391.777 376.339C392.288 380.109 392.415 383.878 390.5 387.529C389.862 388.825 390.117 390.592 389.862 392.477ZM387.054 361.38C387.054 361.38 387.437 361.262 387.692 361.144V358.2C386.671 358.317 385.905 358.435 384.628 358.671C385.649 359.849 386.288 360.555 387.054 361.38Z" fill="#16365E"/>
<path d="M540.114 126.271C539.858 125.682 539.603 125.093 539.348 124.387C538.965 124.504 538.454 124.622 538.454 124.74C538.965 127.213 536.922 129.923 539.603 132.161C540.114 132.632 540.241 133.928 539.858 134.634C539.348 135.459 538.326 136.048 537.433 136.754C537.05 136.637 536.795 136.519 536.412 136.283C536.667 137.697 536.922 139.11 537.05 140.524C537.05 141.113 537.177 141.702 537.05 142.173C535.901 144.764 534.752 147.356 533.22 149.829C532.582 151.007 531.05 151.596 530.029 152.656C529.646 153.01 529.263 153.598 529.007 154.07C528.114 156.19 527.348 158.428 526.199 160.548C525.561 161.608 524.284 162.433 523.391 163.375C521.859 165.142 520.327 166.791 518.795 168.558C518.412 169.029 517.901 169.265 517.135 169.854C517.008 169.029 517.008 168.676 516.88 168.322C516.752 167.969 516.625 167.616 516.37 167.144C515.987 167.38 515.604 167.616 515.221 167.969C514.455 168.44 513.561 168.911 512.795 169.382C512.285 168.44 511.391 167.616 511.391 166.791C511.391 163.022 511.391 159.135 513.689 155.719C514.965 153.716 515.731 151.36 516.88 149.24C517.774 147.709 520.072 146.767 522.497 146.531C523.391 145.707 520.582 142.997 525.178 143.822C524.284 142.291 523.518 141.348 523.008 140.406C522.752 139.817 522.752 138.875 523.135 138.521C524.54 136.99 526.327 135.577 528.242 133.81C528.114 131.572 527.859 128.745 530.284 126.507C531.561 125.329 532.327 123.915 531.688 121.795C531.178 120.264 532.071 118.144 532.965 116.495C533.858 114.845 537.56 115.317 538.709 117.555C540.624 120.146 541.645 123.091 540.114 126.271Z" fill="#16365E"/>
<path d="M601.389 381.404C602.154 382.346 602.92 383.524 604.069 384.938C604.325 384.938 604.963 384.702 605.474 384.82C605.984 384.938 606.622 385.173 606.75 385.527C606.878 385.88 606.622 386.469 606.367 386.822C605.218 388 604.069 389.532 602.537 390.238C601.261 390.827 598.963 390.945 597.942 390.356C596.027 389.06 594.623 387.176 593.091 385.409C592.836 385.173 592.836 384.584 592.708 384.467C589.772 384.113 589.134 381.993 588.368 379.873C587.602 377.87 586.07 376.81 583.517 376.457C582.112 376.221 581.091 374.337 579.942 373.277C578.666 372.099 577.389 370.921 576.24 369.743C574.581 367.976 573.049 366.091 571.389 364.325C569.985 362.675 568.709 360.909 567.049 359.495C563.73 356.433 564.113 355.372 567.177 352.428C568.709 350.896 570.623 351.368 572.155 350.661C572.794 350.307 574.964 351.485 575.857 352.428C577.517 354.077 578.41 356.197 581.346 356.904C582.495 357.139 583.389 358.553 584.283 359.377C585.432 360.32 586.836 361.144 587.985 362.204C589.006 363.147 589.772 364.207 590.665 365.149C590.921 365.502 591.176 366.091 591.431 366.091C595.133 367.034 595.516 370.685 598.069 372.452C598.069 372.452 598.325 372.57 598.325 372.688C598.963 375.279 599.218 377.988 602.154 379.637C602.282 379.519 601.644 380.697 601.389 381.404Z" fill="#16365E"/>
<path d="M543.688 404.138C542.539 403.903 541.645 403.903 540.752 403.667C539.858 404.492 538.965 405.316 538.199 406.141C537.943 406.023 537.816 405.905 537.56 405.67C538.199 404.138 537.305 402.018 539.986 401.312C542.667 400.605 546.369 402.254 547.518 404.374C547.773 404.845 548.411 405.67 548.794 405.67C551.347 405.67 551.73 406.848 551.347 408.732C551.22 409.675 551.858 410.617 552.113 411.677C553.262 411.441 554.156 411.206 555.049 411.206C555.688 411.206 556.709 411.206 557.092 411.677C558.368 412.973 560.028 414.268 560.539 415.918C562.326 420.511 567.304 422.396 570.368 425.93C571.517 427.225 572.921 428.639 574.198 429.817C574.581 430.17 574.964 430.524 575.347 430.759C576.496 431.819 577.644 432.762 578.538 434.057C581.602 434.528 582.368 436.766 583.261 439.004C583.644 439.947 584.666 440.536 585.176 441.478C585.942 442.891 587.474 445.012 586.963 445.718C585.942 447.014 585.176 449.959 581.729 448.545C579.815 447.721 577.772 447.603 577.134 445.129C576.879 444.069 574.708 443.363 573.432 442.42C571.389 440.889 569.347 439.24 567.304 437.709C563.858 435.235 563.475 434.057 565.262 430.406C565.006 430.406 564.751 430.288 564.496 430.288C561.049 432.055 561.049 431.937 559.007 428.639C558.113 427.343 556.709 426.165 555.305 425.341C552.496 423.809 551.092 421.571 549.432 419.216C547.645 416.86 545.092 415.093 543.177 412.973C542.539 412.384 542.667 411.324 542.539 410.499C542.539 410.264 542.794 409.91 542.794 409.792C540.752 407.554 543.05 405.905 543.943 403.903L543.688 404.138Z" fill="#16365E"/>
<path d="M159.187 415.681C159.06 413.208 158.932 411.087 158.677 409.085C158.932 409.085 159.315 408.967 159.57 408.967C160.081 409.556 160.464 410.145 161.358 411.087C161.996 409.909 162.634 409.203 162.762 408.378C163.145 404.609 166.591 402.96 169.145 400.957C171.442 399.191 173.995 398.719 177.059 398.484C178.974 398.366 180.634 396.128 182.548 394.95C183.442 394.479 184.463 394.361 185.357 393.89C187.399 392.83 189.442 391.652 191.357 390.592C195.059 388.472 198.888 386.234 202.718 383.996C203.101 384.702 203.612 385.291 203.995 385.998C205.399 384.467 206.676 383.053 208.08 381.758C210.25 379.637 213.314 379.284 216.25 379.048C217.399 378.931 218.548 379.873 219.952 379.166C220.207 379.048 221.867 380.226 221.994 380.815C222.122 381.993 221.994 383.642 221.101 384.231C217.782 386.94 214.207 389.414 210.505 391.652C208.59 392.83 206.165 393.301 204.122 394.361C202.973 394.95 202.335 396.01 201.059 397.188C200.42 396.128 199.782 395.303 198.888 394.008C197.101 395.775 194.165 396.599 194.803 400.368C191.995 399.426 189.57 398.602 187.272 397.777C185.612 399.78 189.57 402.606 185.357 403.902C184.974 403.313 184.463 402.842 183.953 402.135C184.208 405.669 183.953 405.669 180.378 405.669C179.229 405.669 178.208 406.729 177.187 407.789C176.293 407.554 175.272 407.318 174.889 407.2C174.251 408.496 173.868 409.792 172.974 410.498C170.166 412.619 167.485 415.21 163.145 414.268C162.379 414.032 161.23 414.974 159.187 415.681Z" fill="#16365E"/>
<path d="M721.13 263.144C722.024 263.497 723.045 263.85 724.066 264.086C724.066 264.321 724.066 264.557 723.939 264.793H717.939C715.641 266.795 711.045 267.148 707.088 265.264C705.811 264.675 704.279 264.321 702.492 263.85C702.748 262.555 703.131 261.259 703.641 259.845C704.79 260.199 705.556 260.552 706.833 260.906C705.684 257.725 707.982 258.079 710.024 257.607C712.577 257.136 715.13 256.076 717.556 255.252C718.449 255.016 719.598 254.427 720.109 254.663C722.151 255.605 723.811 254.663 725.215 253.838C727.896 252.189 730.96 251.6 734.023 251.365C735.683 251.129 737.215 250.422 738.747 250.304C742.193 250.069 745.768 250.187 749.215 249.833C750.491 249.715 751.512 248.655 752.917 248.066C753.682 249.48 754.704 250.304 756.619 249.127C757.129 248.773 758.406 249.598 759.555 249.833C761.725 248.538 766.193 249.127 767.342 251.365C767.852 252.307 767.342 254.309 766.448 255.016C763.257 257.49 759.427 259.139 754.959 259.021C752.406 258.903 749.725 258.432 747.683 260.67C747.3 261.141 746.151 261.023 745.385 261.141C744.491 261.259 743.342 260.906 742.704 261.377C740.151 263.026 739.002 261.966 738.108 259.728C736.449 260.199 734.662 260.906 734.279 258.55C731.343 259.61 733.64 260.788 734.151 262.555C732.619 262.437 731.343 262.319 730.194 262.319C728.407 262.201 726.364 260.906 726.109 263.732C724.322 263.261 722.79 262.908 721.258 262.555C721.258 262.672 721.13 262.908 721.13 263.144Z" fill="#16365E"/>
<path d="M231.185 430.287C232.845 429.816 233.483 429.698 233.866 429.58C232.973 428.52 231.058 427.107 231.313 426.518C231.951 425.104 233.611 424.044 234.888 422.984C235.526 422.513 236.292 422.277 236.802 421.806C239.355 419.568 241.909 417.33 244.589 415.092C244.845 414.857 245.228 414.739 245.483 414.503C249.185 411.087 253.781 408.614 258.249 406.14C260.674 404.844 262.844 403.195 265.27 401.9C266.674 401.193 268.461 401.193 269.865 400.486C273.44 398.719 276.886 396.717 280.461 395.068C283.78 393.537 285.056 393.89 287.227 396.481C286.844 397.188 286.078 397.777 286.078 398.248C286.333 401.193 284.035 401.782 281.482 402.253C281.099 402.371 280.716 402.842 280.333 403.078C278.801 404.138 277.269 405.08 275.865 406.14C274.333 407.318 272.674 408.378 271.27 409.556C269.227 411.087 267.695 412.854 264.504 412.619C263.61 412.619 262.589 414.15 261.568 414.974C256.461 418.744 251.355 422.513 246.377 426.282C244.589 427.578 243.185 429.227 241.526 430.758C239.355 432.761 236.547 432.879 233.739 432.525C233.228 432.407 232.462 431.23 231.185 430.287Z" fill="#16365E"/>
<path d="M430.968 525.109C430.074 524.873 427.776 524.873 428.159 522.046C429.053 522.282 429.563 522.517 430.202 522.753C430.329 522.635 430.585 522.517 430.712 522.4C430.074 521.575 429.436 520.751 428.67 520.044C427.904 519.337 426.755 518.984 426.117 518.277C425.606 517.806 425.734 516.981 425.478 516.275C426.372 516.275 427.265 516.275 428.031 516.392C428.542 516.51 429.053 516.981 429.819 517.57C428.67 515.568 427.776 513.801 426.755 512.034C424.074 512.741 422.67 511.916 422.159 508.972C422.159 508.854 422.159 508.736 422.159 508.736C418.074 505.438 421.01 502.258 422.159 498.842C425.734 498.135 429.308 499.548 431.861 503.318C433.521 505.673 434.67 508.265 435.818 510.856C436.201 511.799 436.074 512.976 436.074 514.39C437.606 516.628 439.393 519.337 439.52 522.635C439.648 524.402 439.01 526.169 441.946 526.64C442.329 526.64 442.712 527.347 443.095 527.7C441.052 528.407 440.669 530.292 441.946 533.708C442.329 533.001 442.712 532.53 443.095 531.941C445.137 532.883 446.031 533.825 445.393 535.946C445.137 536.888 445.648 538.301 446.414 539.126C447.563 540.539 449.222 541.717 450.627 543.013C450.882 543.249 451.137 543.484 451.01 543.602C448.967 547.371 453.946 548.314 454.456 551.023C454.712 552.436 455.733 553.732 455.605 555.028C455.478 555.97 453.818 557.03 452.797 557.266C450.499 557.501 448.201 557.383 446.031 557.03C444.754 556.794 443.223 555.97 444.371 554.085C445.01 552.907 445.01 551.376 445.393 549.374C443.861 550.08 443.223 550.434 442.457 550.669C441.818 549.256 441.18 547.96 440.414 546.547C441.308 546.076 442.329 545.722 443.223 545.133C443.861 544.662 444.116 543.955 444.627 543.366C443.733 543.013 442.967 542.66 442.201 542.188L441.818 542.66C441.052 541.364 440.414 540.068 439.52 538.89C439.138 538.419 438.116 538.184 437.35 538.184C435.436 538.184 434.797 537.359 434.542 535.828C434.159 534.061 433.265 532.294 432.627 530.645C431.989 528.996 431.606 527.347 430.968 525.109ZM438.244 532.53C438.755 530.056 436.584 529.349 435.053 528.289C434.925 528.171 434.287 528.76 433.904 528.996C435.435 530.292 436.84 531.234 438.244 532.53Z" fill="#16365E"/>
<path d="M704.535 181.161V181.396C702.492 182.928 701.216 182.457 698.152 179.865C696.365 178.334 697.131 177.156 698.28 175.978C698.535 175.625 699.173 175.154 699.684 175.154C702.875 175.389 704.918 173.151 707.343 171.973C707.599 171.855 707.982 171.502 708.365 171.502C710.918 171.855 712.705 170.56 714.492 169.5C716.917 168.204 719.343 166.79 721.896 165.73C729.172 162.55 736.449 159.37 743.853 156.425C745.002 155.954 746.406 156.189 747.427 155.718C753.938 152.538 760.448 149.475 767.086 146.295C767.98 147.826 769.129 149.004 769.257 150.418C769.639 153.245 766.831 155.483 763.895 156.896C759.299 159.134 753.938 159.252 749.725 162.55C747.172 164.552 743.087 165.141 739.64 166.437C736.321 167.733 733.13 169.617 729.555 170.56C725.853 171.62 723.045 174.211 719.088 174.8C717.939 175.036 716.79 175.86 715.641 176.449C713.854 177.392 712.194 178.216 710.407 179.276C709.003 180.101 707.854 179.747 706.45 178.805C705.556 178.216 704.024 178.452 702.748 178.334C703.131 179.276 703.641 180.101 704.024 180.925C704.28 181.161 704.28 181.161 704.535 181.161Z" fill="#16365E"/>
<path d="M352.842 128.745C353.735 129.452 354.629 129.923 355.14 130.629C356.927 133.456 358.331 136.283 360.118 139.11C361.267 141.231 359.735 142.997 358.459 143.94C357.31 144.764 354.884 144.529 353.225 144.058C352.459 143.822 352.076 141.937 351.948 140.759C351.693 138.757 352.459 136.519 349.395 135.577C349.14 135.459 348.885 134.517 349.012 134.045C349.267 132.985 349.65 131.807 350.161 130.276C349.267 131.218 348.757 131.807 347.608 132.985C346.331 130.865 344.8 128.98 344.161 126.978C343.395 124.504 341.48 122.738 339.821 121.206C337.778 119.086 337.395 117.319 338.672 114.61C337.395 114.963 336.63 115.199 335.736 115.552C332.927 112.254 329.991 108.956 327.311 105.658C323.864 101.653 320.545 97.5304 317.353 93.29C316.332 91.9943 315.311 90.1096 315.566 88.8139C316.46 85.0446 320.545 84.4557 323.481 87.7538C328.587 93.4077 333.949 98.9439 337.906 105.305C339.949 108.367 343.012 110.723 344.417 113.785C346.459 118.144 351.055 121.088 352.459 125.682C352.714 126.978 352.842 128.038 352.842 128.745Z" fill="#16365E"/>
<path d="M644.792 341.474C646.324 341.945 647.473 342.534 648.749 342.652C651.685 343.123 655.004 342.887 657.813 343.712C660.366 344.536 662.408 346.421 664.706 347.717C665.727 348.305 666.876 348.894 667.898 349.483C668.025 349.601 668.28 349.483 668.408 349.601C672.365 353.488 678.493 355.255 681.174 360.32C682.45 362.676 682.45 363.147 679.642 364.089C679.131 364.325 678.493 364.443 678.238 364.796C676.578 366.327 674.919 367.505 672.621 365.503C668.281 366.681 665.983 363.736 663.174 361.734C661.77 360.673 659.217 361.027 657.43 360.202C654.749 359.024 651.558 357.964 650.026 355.962C647.983 353.488 644.792 352.664 642.749 350.426C642.111 349.719 640.962 349.366 640.707 348.777C640.068 346.892 638.92 344.772 639.685 343.123C640.068 342.18 643.005 341.945 644.792 341.474Z" fill="#16365E"/>
<path d="M571.134 316.149C569.857 316.62 568.964 317.091 567.815 317.445C567.687 316.856 567.687 316.267 567.56 315.678C564.879 316.031 561.943 313.911 561.432 311.908C557.985 310.142 555.049 308.61 551.986 307.079C550.837 306.372 549.688 305.783 548.539 305.077C547.262 304.252 545.858 303.545 544.582 302.721C545.986 301.543 547.39 299.54 548.922 299.54C552.113 299.423 555.56 298.363 558.496 300.365C559.645 301.19 560.666 302.132 561.815 302.956C562.581 303.545 563.219 304.252 564.113 304.723C566.794 305.901 569.73 306.843 569.347 310.259C574.964 310.495 578.027 313.675 580.964 317.209C581.602 317.916 582.751 318.269 583.644 318.858C584.027 319.094 584.538 319.094 584.921 319.329C590.027 323.923 597.559 325.454 602.282 330.519C604.197 332.522 602.155 333.935 602.027 335.466C602.027 336.173 601.133 336.998 600.24 337.351C599.346 337.704 597.942 337.822 597.304 337.351C594.112 335.113 591.304 332.64 588.24 330.402C587.219 329.695 585.815 329.577 584.793 328.87C581.474 326.514 578.283 324.159 574.964 321.685C574.581 321.449 574.198 321.096 573.815 320.978C571.262 320.389 571.006 318.622 571.134 316.149Z" fill="#16365E"/>
<path d="M169.783 308.728C173.613 310.848 174.506 308.139 176.038 306.372C175.144 306.49 174.251 306.843 173.613 306.608C172.719 306.372 171.825 305.665 171.059 305.076C171.698 304.487 172.081 303.545 172.847 303.31C175.017 302.485 177.187 301.896 179.485 301.425C180.889 301.189 182.421 301.425 183.697 301.072C184.974 300.718 186.25 300.365 187.527 300.011C189.697 299.54 191.74 298.951 193.91 298.598C197.995 298.009 202.08 297.538 206.037 297.067C210.378 296.595 214.59 295.889 218.931 295.771C222.76 295.653 226.462 296.124 230.292 296.831C231.441 297.067 232.207 298.598 233.1 299.54C232.207 300.129 231.313 300.836 230.292 301.189C227.866 302.132 225.313 302.721 222.888 303.545C222.377 303.663 221.611 303.898 221.228 303.663C218.931 302.014 217.016 302.603 215.228 304.37C214.846 304.841 213.824 304.723 213.186 304.841C210.888 305.43 208.59 306.136 206.293 306.725C204.888 307.079 203.356 307.668 201.952 307.55C197.612 307.079 193.399 307.55 189.187 308.61C185.612 309.552 181.91 310.141 178.336 310.848C177.825 310.966 177.315 311.201 176.804 311.437C173.23 313.439 172.208 313.204 169.783 308.728Z" fill="#16365E"/>
<path d="M402.117 248.419C401.862 248.419 401.096 248.655 400.968 248.655C401.607 251.482 402.755 254.073 402.628 256.782C402.628 259.374 401.862 262.083 400.585 264.439C400.075 265.381 397.139 265.617 395.479 265.263C394.33 265.028 392.926 263.261 392.926 262.083C392.543 258.785 393.181 255.487 392.543 252.306C392.032 249.597 393.947 246.535 391.011 244.297C390.756 244.061 390.5 243.472 390.756 243.119C391.649 240.763 390.117 238.878 389.224 236.876C389.224 236.758 389.352 236.64 389.479 236.287C390.373 236.64 391.266 236.994 392.798 237.465C392.288 236.169 392.032 235.345 391.649 234.52C391.649 234.402 391.266 234.284 391.266 234.167C389.99 230.515 387.181 227.688 384.501 224.861C383.735 224.037 384.245 222.27 383.862 220.974C383.479 219.561 382.458 218.265 382.075 216.852C381.82 215.791 381.947 214.614 381.947 213.436C381.947 212.729 382.586 212.14 382.586 211.551C382.458 210.255 381.82 208.842 384.118 208.842C385.905 208.842 387.437 209.549 387.309 211.551C387.309 211.669 387.437 211.904 387.437 212.022C392.415 212.022 392.415 216.027 394.202 218.501C390.756 220.385 390.756 220.503 393.819 222.859C397.011 225.215 397.394 228.631 395.224 232.4C397.394 234.873 399.309 236.169 400.841 236.051C397.904 240.41 402.755 243.943 402.117 248.419Z" fill="#16365E"/>
<path d="M6.38281 266.206C7.53171 263.379 10.5955 263.261 13.0209 262.318C16.2123 261.258 19.2761 260.08 22.4675 259.138C26.6801 257.96 30.8928 256.547 35.1055 255.722C39.5734 254.78 44.2967 254.662 48.7647 253.955C52.3391 253.366 54.5092 255.604 57.19 256.782C58.3389 257.253 57.19 259.491 55.6581 260.198C53.7433 261.023 51.8284 261.847 49.9136 262.672C49.6583 262.79 49.1476 263.025 48.8923 262.907C45.4456 261.847 42.5095 263.496 39.4458 264.321C37.9139 264.792 35.9991 264.439 33.7012 264.439C32.4247 266.677 29.6162 267.501 26.0419 267.972C22.8505 268.444 20.042 270.564 16.9783 271.742C14.0422 272.802 11.1061 273.98 8.04234 274.451C6.63812 274.686 4.97859 273.273 3.95734 272.92C4.97859 270.682 5.74452 268.444 6.38281 266.206Z" fill="#16365E"/>
<path d="M94.338 477.051C95.2315 474.342 95.8698 471.632 97.0187 469.041C97.5294 467.981 97.657 467.51 96.5081 466.567C95.4869 465.625 94.8486 464.329 96.2528 462.798C97.7847 461.267 98.6783 459.264 100.082 457.615C100.976 456.555 101.997 455.731 103.785 455.377C105.189 455.142 105.955 452.668 106.976 451.137C107.231 450.783 106.848 450.077 106.976 449.723C109.018 446.896 110.933 444.069 113.231 441.478C114.891 439.593 116.805 437.709 118.976 436.413C120.252 435.589 122.678 435.353 124.082 435.824C125.869 436.531 125.231 438.298 124.465 439.829C121.656 444.541 118.976 449.252 116.295 453.964C112.72 459.971 109.274 466.096 105.572 471.986C104.423 473.753 103.146 475.402 101.742 477.169C100.721 478.464 99.4442 478.582 97.7847 477.757C97.0187 477.64 95.8698 477.404 94.338 477.051Z" fill="#16365E"/>
<path d="M641.217 164.2C642.111 164.2 642.749 164.318 643.515 164.318C643.771 161.962 644.664 160.313 646.962 158.899C650.792 156.543 654.238 153.481 657.94 150.772C661.387 148.298 665.089 145.942 668.664 143.586C671.727 141.584 674.791 139.582 678.11 137.933C679.514 137.226 681.557 136.755 682.961 137.226C685.004 137.697 684.748 139.699 684.493 141.348C684.11 144.293 682.45 146.649 679.514 147.827C676.961 148.887 675.557 151.832 672.11 151.243C671.983 151.243 671.6 151.478 671.472 151.714C670.068 154.541 667.132 155.483 664.196 156.426C663.302 156.661 662.153 157.604 661.898 158.428C661.004 161.255 658.196 162.197 655.898 163.729C654.749 164.553 653.728 165.613 652.962 166.791C651.813 168.322 646.579 171.267 644.537 170.678C643.005 170.207 639.813 170.56 641.345 167.38C641.856 166.673 641.345 165.495 641.217 164.2Z" fill="#16365E"/>
<path d="M415.521 338.175C414.883 337.822 414.372 337.586 413.989 337.233C413.351 336.526 413.096 335.702 412.457 334.995C410.67 333.464 411.691 331.814 412.585 330.754C413.223 329.93 415.776 329.341 416.542 329.812C421.138 332.875 425.351 336.291 425.989 341.944C426.117 342.887 427.393 343.594 427.521 344.536C427.904 346.303 430.074 347.716 428.925 349.954C428.67 350.425 429.946 351.368 430.457 352.192C431.478 353.723 432.627 355.137 433.138 356.786C433.393 357.611 432.499 358.788 432.116 359.966C434.797 359.966 434.287 361.615 434.159 363.618C433.904 365.738 434.542 367.858 434.542 369.979C434.542 372.57 434.414 375.161 433.904 377.635C433.648 379.637 431.733 380.108 430.457 378.577C428.925 376.81 428.031 374.572 427.01 372.452C426.882 372.217 427.648 371.628 428.159 371.274C428.925 370.803 429.819 370.332 430.712 369.861C430.457 369.507 430.329 369.272 430.202 369.272C429.18 369.272 427.521 369.743 427.265 369.272C426.117 367.623 424.968 365.856 424.329 363.971C423.18 360.555 422.797 356.904 421.521 353.488C420.755 351.485 419.095 349.954 417.691 348.07C417.181 347.481 416.542 346.774 416.542 346.067C416.287 344.182 416.925 342.062 414.883 340.531C414.627 340.295 415.138 339.117 415.393 338.411H415.521V338.175Z" fill="#16365E"/>
<path d="M506.54 337.822C505.774 337.822 504.753 337.94 503.859 337.822C499.774 337.115 496.583 335.113 493.391 332.875C491.86 331.697 489.562 331.579 487.519 330.872C486.881 330.637 485.987 330.637 485.732 330.283C484.2 328.045 481.647 327.81 479.222 327.103C476.924 326.396 476.796 325.218 478.456 323.687C477.817 323.334 477.434 322.98 476.796 322.745C475.392 322.038 475.009 319.682 476.413 319.329C478.456 318.858 481.009 318.151 482.668 318.858C488.668 321.213 494.285 324.158 500.157 326.867C502.838 328.163 507.944 332.05 508.582 334.759C509.093 334.053 509.731 333.228 510.37 332.286C512.157 333.464 515.348 333.346 515.093 336.526C519.178 335.937 522.752 337.586 523.135 340.178C523.391 342.062 524.54 343.122 526.582 343.358C525.944 345.949 523.008 347.127 520.455 346.421C517.008 345.596 513.944 344.418 511.519 342.18C509.604 340.767 507.944 339.117 506.54 337.822Z" fill="#16365E"/>
<path d="M419.606 41.1081C419.734 40.7547 419.861 40.2835 420.117 39.9302C420.627 39.2234 421.266 38.6345 421.904 37.9277C422.287 38.7523 422.797 39.459 423.18 40.2835C423.308 40.5191 423.053 40.8725 423.18 40.9903C426.372 45.1129 424.457 50.1779 425.989 54.6539C426.372 55.9496 425.989 57.4809 425.989 58.7766C426.117 60.1901 426.5 61.6036 426.5 63.0171C426.5 64.195 425.734 65.4907 425.734 66.6686C425.734 68.7888 425.734 71.0268 426.117 73.147C426.627 75.1494 428.414 77.1519 428.159 79.1543C428.031 80.5678 425.989 82.2169 424.329 83.277C422.925 84.2193 421.776 83.277 420.627 81.9813C417.819 78.8009 417.564 75.8562 419.606 72.4403C419.861 72.2047 419.734 71.6157 419.606 71.2624C416.542 65.7262 415.138 60.0723 415.649 53.8294C415.904 51.1202 415.266 48.2933 415.266 45.5841C415.266 44.2884 415.649 42.7571 416.287 41.5792C416.67 40.9903 418.074 40.8725 418.968 40.6369L419.606 41.1081Z" fill="#16365E"/>
<path d="M747.938 395.422C743.725 395.068 739.385 394.833 735.172 394.361C729.3 393.773 723.556 394.479 717.811 395.422C716.662 395.657 715.386 395.657 714.237 395.775C711.173 396.011 708.109 396.128 705.173 396.246C698.152 396.717 691.131 397.188 683.982 397.542C682.578 397.542 681.046 397.071 679.77 396.6C679.387 396.482 678.876 395.186 679.004 395.068C680.408 394.008 681.94 392.595 683.599 392.123C684.493 391.888 686.025 392.948 687.429 393.419C687.812 391.888 689.216 391.888 691.386 392.123C693.173 392.241 695.216 391.299 697.131 390.828C700.067 390.121 704.918 390.592 706.705 391.535C708.875 390.828 710.535 390.003 712.194 390.003C717.939 389.885 723.683 390.239 729.3 390.121C731.853 390.121 734.534 389.414 737.087 389.414C740.151 389.297 743.215 389.414 746.151 389.768C746.789 389.768 747.555 390.946 747.81 391.652C748.066 392.712 747.938 393.89 747.938 395.422Z" fill="#16365E"/>
<path d="M400.968 612.862C400.713 610.035 400.841 607.562 400.33 605.206C399.692 602.026 398.67 598.963 398.032 595.783C397.777 594.723 398.67 593.427 398.415 592.367C397.905 590.482 396.756 588.715 396.373 586.713C395.862 584.239 395.734 581.766 395.607 579.292C395.607 578.821 396.628 577.761 396.883 577.761C398.415 578.114 400.075 578.585 401.479 579.292C401.734 579.41 401.607 581.059 401.224 581.412C399.564 582.59 399.819 583.532 400.841 584.946C402.245 586.713 403.521 588.597 404.287 590.6C404.926 592.485 404.926 594.605 405.053 596.607C405.181 598.727 404.926 600.848 404.926 603.086C404.926 603.675 405.564 604.264 405.819 604.735C407.351 606.973 406.968 608.386 404.67 609.8C403.394 610.506 402.628 611.449 400.968 612.862Z" fill="#16365E"/>
<path d="M406.84 611.566C407.351 613.804 408.628 615.925 404.798 616.867C404.032 617.103 404.032 619.341 403.649 620.636C403.904 620.754 404.287 620.872 404.67 620.872C405.053 620.401 405.436 619.812 405.819 619.105C410.287 621.579 405.181 625.466 407.862 628.057C404.415 628.882 401.862 626.761 401.99 623.463C401.99 621.579 401.99 619.694 401.734 617.809C401.607 614.393 403.266 612.273 406.84 611.566Z" fill="#16365E"/>
<path d="M235.526 509.914C234.505 511.799 233.739 513.919 232.462 515.568C231.441 516.864 229.271 516.039 227.866 513.801C230.292 512.623 232.973 511.328 235.526 509.914Z" fill="#16365E"/>
<path d="M697.514 182.339C696.62 182.81 695.727 183.634 694.705 183.634C694.067 183.634 693.429 182.574 692.663 182.103C693.429 181.514 694.195 180.689 694.961 180.572C695.599 180.454 696.493 181.161 697.258 181.514C697.514 181.75 697.514 182.103 697.514 182.339Z" fill="#16365E"/>
<path d="M399.436 575.052C398.543 574.345 397.649 573.756 396.756 573.049C397.139 572.696 397.905 571.989 398.032 572.107C398.926 572.696 399.692 573.403 400.585 573.991L399.436 575.052Z" fill="#16365E"/>
<path d="M6.38279 266.088C5.23388 266.559 4.08498 267.148 2.93607 267.62C2.80841 267.266 2.68076 266.913 2.5531 266.559C3.44669 265.735 4.46794 264.321 6.38279 266.088Z" fill="#16365E"/>
</g>
</g>
<defs>
<clipPath id="clip0_947_1369">
<rect width="817" height="629" fill="white"/>
</clipPath>
</defs>
</svg>
